<svg id="svg" xmlns="http://www.w3.org/2000/svg" xmlns:xlink="http://www.w3.org/1999/xlink" width="400" height="400" viewBox="0, 0, 400,400"><g id="svgg"><path id="path0" d="M2.852 51.968 C 2.396 52.250,2.396 52.338,2.855 52.520 C 3.200 52.657,3.107 52.751,2.600 52.775 C 1.934 52.806,1.901 52.877,2.400 53.200 C 2.790 53.452,2.827 53.590,2.506 53.594 C 2.115 53.599,2.010 79.988,2.003 180.044 C 1.995 300.498,2.027 306.476,2.697 306.243 C 3.352 306.015,3.353 306.034,2.724 306.526 C 2.273 306.878,2.056 307.609,2.071 308.727 L 2.094 310.400 4.047 310.400 C 6.138 310.400,6.228 310.527,6.010 313.145 C 5.960 313.737,6.093 313.990,6.365 313.821 C 6.604 313.674,6.800 313.743,6.800 313.975 C 6.800 314.270,64.231 314.397,198.200 314.397 C 332.169 314.397,389.600 314.270,389.600 313.975 C 389.600 313.743,389.796 313.674,390.035 313.821 C 390.307 313.990,390.440 313.737,390.390 313.145 C 390.171 310.518,390.257 310.400,392.397 310.400 L 394.394 310.400 394.388 181.700 C 394.385 106.010,394.234 52.764,394.022 52.426 C 393.597 51.750,388.800 51.357,388.800 51.999 C 388.800 52.219,388.609 52.400,388.376 52.400 C 388.143 52.400,388.064 52.220,388.200 52.000 C 388.365 51.734,324.930 51.600,198.200 51.600 C 71.470 51.600,8.035 51.734,8.200 52.000 C 8.336 52.220,8.257 52.400,8.024 52.400 C 7.791 52.400,7.600 52.239,7.600 52.041 C 7.600 51.584,3.574 51.522,2.852 51.968 M371.862 70.706 C 372.275 70.969,203.854 70.965,74.000 70.698 C 46.830 70.642,102.630 70.555,198.000 70.505 C 293.370 70.454,371.608 70.544,371.862 70.706 M285.133 72.700 C 237.466 72.756,159.346 72.756,111.533 72.700 C 63.720 72.644,102.720 72.598,198.200 72.598 C 293.680 72.598,332.800 72.644,285.133 72.700 M371.600 183.201 L 371.600 292.000 198.000 292.000 L 24.400 292.000 24.400 183.100 L 24.400 74.200 198.000 74.301 L 371.600 74.402 371.600 183.201 M374.700 237.268 C 374.643 267.260,374.597 242.840,374.597 183.000 C 374.597 123.160,374.643 98.620,374.700 128.468 C 374.757 158.315,374.757 207.275,374.700 237.268 M140.119 113.118 C 139.854 113.286,139.516 114.184,139.368 115.112 C 139.177 116.305,138.904 116.800,138.438 116.800 C 137.499 116.800,136.000 117.935,136.000 118.646 C 136.000 118.995,136.209 119.141,136.500 118.994 C 136.775 118.855,136.641 119.031,136.202 119.386 C 135.563 119.903,135.512 120.099,135.947 120.367 C 136.405 120.650,136.404 120.733,135.945 120.893 C 135.511 121.044,135.542 121.244,136.100 121.873 C 136.485 122.308,136.800 122.818,136.800 123.008 C 136.800 123.198,136.536 123.004,136.213 122.576 C 135.695 121.893,135.624 128.748,135.613 180.071 C 135.601 235.236,135.637 238.351,136.300 238.524 C 136.964 238.698,136.964 238.710,136.302 238.754 C 135.330 238.818,135.388 243.061,136.373 243.980 C 136.739 244.321,136.800 244.439,136.509 244.243 C 135.789 243.756,135.379 244.252,135.941 244.929 C 136.192 245.231,136.956 245.494,137.640 245.513 C 139.227 245.559,139.273 245.616,139.342 247.675 L 139.400 249.400 141.393 249.473 C 142.567 249.516,143.510 249.352,143.687 249.073 C 143.900 248.738,143.990 248.732,143.994 249.054 C 143.998 249.360,145.429 249.528,148.400 249.573 C 151.241 249.615,152.800 249.489,152.800 249.219 C 152.800 248.989,152.991 248.800,153.224 248.800 C 153.457 248.800,153.547 248.962,153.425 249.160 C 153.097 249.691,156.102 249.603,156.777 249.062 C 157.222 248.706,157.285 248.713,157.056 249.095 C 156.854 249.432,156.958 249.514,157.379 249.353 C 157.810 249.187,158.000 248.576,158.000 247.357 C 158.000 245.414,157.928 245.443,162.514 245.539 C 163.600 245.561,163.946 245.433,163.738 245.085 C 163.525 244.731,163.615 244.737,164.070 245.105 C 164.929 245.800,165.842 244.823,165.090 244.012 C 164.700 243.590,164.708 243.544,165.133 243.785 C 165.501 243.994,165.641 243.858,165.586 243.344 C 165.432 241.885,165.598 240.977,165.924 241.491 C 166.233 241.978,169.033 242.099,169.800 241.659 C 170.019 241.533,170.559 241.423,170.998 241.415 C 171.437 241.407,171.797 241.190,171.798 240.933 C 171.799 240.677,171.964 240.317,172.164 240.133 C 172.376 239.940,172.408 240.010,172.241 240.300 C 172.082 240.575,172.135 240.800,172.358 240.800 C 172.581 240.800,172.882 240.170,173.026 239.400 C 173.284 238.027,173.326 238.000,175.245 238.000 C 176.999 238.000,177.202 237.908,177.222 237.100 C 177.260 235.549,179.302 234.314,181.777 234.343 C 184.283 234.373,184.925 233.847,184.732 231.920 C 184.601 230.607,184.610 230.599,186.510 230.478 C 187.861 230.391,188.336 230.216,188.133 229.878 C 187.929 229.537,188.024 229.544,188.464 229.900 C 189.861 231.030,191.769 230.326,192.146 228.541 L 192.492 226.903 194.936 226.681 C 196.280 226.559,197.441 226.276,197.516 226.052 C 197.591 225.828,197.896 225.739,198.195 225.853 C 198.880 226.116,199.682 224.678,199.343 223.795 C 199.138 223.261,199.016 223.236,198.714 223.666 C 198.416 224.091,198.373 224.077,198.503 223.600 C 198.617 223.181,199.320 222.964,200.833 222.882 C 202.025 222.817,203.213 222.692,203.474 222.604 C 204.152 222.377,203.920 219.247,203.192 218.786 C 202.833 218.559,202.787 218.410,203.076 218.406 C 203.338 218.403,203.664 218.580,203.800 218.800 C 204.251 219.530,205.597 219.271,205.357 218.500 C 205.153 217.843,205.167 217.843,205.583 218.487 C 206.083 219.264,208.800 219.375,209.294 218.638 C 209.496 218.337,209.590 218.356,209.594 218.700 C 209.597 218.975,209.780 219.200,210.000 219.200 C 210.220 219.200,210.400 218.930,210.400 218.600 C 210.400 218.270,210.670 218.000,211.000 218.000 C 211.727 218.000,211.796 217.346,211.100 217.065 C 210.700 216.904,210.700 216.857,211.100 216.832 C 211.803 216.787,211.721 216.009,210.911 215.031 C 210.531 214.574,210.477 214.425,210.791 214.700 C 211.104 214.975,211.515 215.200,211.704 215.200 C 211.893 215.200,211.920 214.975,211.765 214.700 C 211.539 214.300,211.590 214.300,212.021 214.700 C 213.036 215.642,217.907 215.236,217.321 214.258 C 217.170 214.006,217.386 214.070,217.800 214.400 C 218.214 214.730,218.428 214.790,218.274 214.534 C 218.121 214.278,218.221 213.977,218.498 213.865 C 218.878 213.710,218.854 213.558,218.400 213.237 C 217.882 212.870,217.896 212.811,218.500 212.806 C 218.885 212.803,219.200 212.530,219.200 212.200 C 219.200 211.681,220.455 211.356,221.700 211.553 C 221.865 211.579,222.003 211.375,222.006 211.100 C 222.010 210.762,222.133 210.790,222.385 211.189 C 222.703 211.692,222.796 211.675,223.026 211.077 C 223.212 210.592,223.542 210.455,224.097 210.631 C 224.626 210.799,224.808 210.736,224.629 210.447 C 224.454 210.163,224.601 210.102,225.049 210.274 C 225.584 210.479,225.679 210.384,225.474 209.849 C 225.297 209.386,225.360 209.252,225.668 209.442 C 225.979 209.635,226.054 209.449,225.900 208.861 C 225.655 207.924,226.499 207.530,228.965 207.431 C 230.430 207.372,230.914 204.722,229.650 203.678 C 229.219 203.321,229.198 203.244,229.588 203.449 C 230.563 203.958,235.368 203.966,235.694 203.458 C 235.906 203.127,235.989 203.138,235.994 203.500 C 236.003 204.282,236.799 204.086,236.806 203.300 C 236.811 202.713,236.872 202.695,237.185 203.189 C 237.512 203.707,237.580 203.707,237.751 203.189 C 238.173 201.909,238.215 199.603,237.819 199.438 C 237.566 199.332,237.589 199.251,237.876 199.232 C 238.138 199.214,238.464 199.380,238.600 199.600 C 238.736 199.820,239.297 200.000,239.847 200.000 C 240.541 200.000,240.755 199.847,240.547 199.500 C 240.335 199.147,240.441 199.158,240.909 199.537 C 242.112 200.513,245.794 199.410,245.567 198.142 C 245.253 196.394,245.579 196.098,248.005 195.922 C 250.671 195.729,252.515 194.690,252.728 193.260 C 252.862 192.359,253.091 192.268,254.920 192.390 C 256.489 192.494,257.271 191.714,257.139 190.178 C 257.047 189.110,257.336 188.597,258.867 187.108 L 260.706 185.321 260.764 181.670 C 260.830 177.549,259.794 175.065,257.800 174.564 C 256.879 174.333,256.604 173.784,256.769 172.505 C 256.976 170.903,253.958 169.193,253.156 170.457 C 252.886 170.884,252.811 170.855,252.806 170.323 C 252.802 169.814,252.379 169.616,251.100 169.523 C 249.787 169.428,249.424 169.251,249.507 168.745 C 249.898 166.356,244.437 164.628,242.785 166.618 C 242.019 167.541,241.679 166.943,241.817 164.911 C 241.970 162.644,241.479 161.929,239.831 162.016 C 237.658 162.131,237.337 162.019,236.864 160.981 C 236.608 160.420,235.857 159.733,235.193 159.454 C 234.530 159.175,234.104 158.830,234.247 158.687 C 234.390 158.543,234.078 158.446,233.553 158.470 C 230.790 158.595,230.456 158.454,230.325 157.100 C 230.250 156.322,229.999 155.840,229.700 155.900 C 229.425 155.955,229.245 155.787,229.300 155.526 C 229.355 155.265,228.885 155.005,228.254 154.946 C 227.623 154.888,227.010 154.743,226.891 154.624 C 226.771 154.505,226.397 154.630,226.060 154.903 C 225.666 155.223,225.545 155.236,225.722 154.941 C 225.912 154.623,225.506 154.500,224.398 154.541 C 222.764 154.601,222.602 154.414,222.783 152.676 C 222.933 151.234,222.095 150.854,218.814 150.876 C 215.055 150.900,214.790 150.771,215.070 149.044 C 215.319 147.513,214.847 147.034,213.000 146.938 C 212.340 146.903,211.578 146.858,211.308 146.838 C 211.037 146.817,210.708 146.373,210.577 145.851 C 210.305 144.766,208.746 143.781,207.847 144.126 C 207.433 144.286,207.311 144.176,207.463 143.780 C 207.638 143.325,207.288 143.200,205.843 143.200 C 204.471 143.200,204.000 143.047,204.000 142.600 C 204.000 142.270,203.685 141.986,203.300 141.968 C 202.882 141.950,202.801 141.856,203.100 141.735 C 203.375 141.624,203.600 141.349,203.600 141.124 C 203.600 140.899,203.360 140.807,203.067 140.919 C 202.773 141.032,202.533 140.879,202.533 140.579 C 202.533 140.280,202.728 140.144,202.967 140.276 C 203.256 140.437,203.267 140.383,203.000 140.112 C 202.366 139.468,199.895 139.103,200.257 139.706 C 200.483 140.083,200.417 140.093,199.977 139.749 C 199.660 139.501,198.696 139.321,197.836 139.349 C 196.674 139.387,196.227 139.226,196.095 138.721 C 195.998 138.348,195.621 137.964,195.259 137.868 C 194.682 137.714,194.687 137.687,195.300 137.646 C 196.180 137.588,196.179 137.379,195.295 136.495 C 194.445 135.645,192.374 135.401,191.931 136.098 C 191.677 136.498,191.611 136.499,191.606 136.100 C 191.602 135.784,191.010 135.600,190.000 135.600 C 188.881 135.600,188.400 135.428,188.400 135.029 C 188.400 134.715,188.085 134.376,187.700 134.276 C 187.071 134.111,187.068 134.088,187.675 134.046 C 188.356 134.000,188.566 132.400,187.891 132.400 C 187.705 132.400,187.663 132.221,187.799 132.002 C 187.948 131.761,187.432 131.628,186.486 131.665 C 184.672 131.736,184.005 131.419,183.987 130.476 C 183.966 129.344,182.098 128.333,179.611 128.107 C 177.200 127.889,176.962 127.643,176.644 125.038 C 176.583 124.538,175.432 124.306,172.489 124.200 C 169.384 124.089,169.534 124.244,169.246 120.865 C 169.189 120.207,162.772 120.312,162.306 120.979 C 162.111 121.258,162.010 121.236,162.006 120.913 C 162.003 120.632,161.703 120.519,161.300 120.645 C 160.633 120.855,160.633 120.838,161.300 120.289 C 162.501 119.299,162.113 118.112,160.670 118.363 C 160.489 118.394,160.450 118.243,160.583 118.027 C 160.716 117.812,161.108 117.743,161.453 117.876 C 161.911 118.051,162.041 117.911,161.935 117.358 C 161.825 116.790,161.424 116.590,160.335 116.558 C 158.403 116.503,157.600 116.160,157.600 115.389 C 157.600 115.039,157.422 114.863,157.205 114.997 C 156.987 115.132,156.905 114.991,157.023 114.685 C 157.299 113.964,156.188 113.042,155.405 113.343 C 155.070 113.471,154.797 113.357,154.794 113.087 C 154.790 112.779,154.645 112.821,154.400 113.200 C 154.161 113.569,154.010 113.615,154.006 113.319 C 153.998 112.642,141.944 112.650,141.513 113.327 C 141.287 113.683,141.211 113.676,141.206 113.300 C 141.199 112.733,140.823 112.670,140.119 113.118 M173.200 126.019 C 173.200 126.250,173.643 126.849,174.185 127.351 C 175.164 128.258,175.165 128.264,174.285 128.201 C 173.708 128.159,173.355 127.835,173.272 127.269 C 173.202 126.791,172.977 126.400,172.772 126.400 C 172.567 126.400,172.400 126.220,172.400 126.000 C 172.400 125.780,172.580 125.600,172.800 125.600 C 173.020 125.600,173.200 125.789,173.200 126.019 M175.251 126.277 C 175.624 126.737,175.640 126.857,175.300 126.653 C 175.019 126.484,174.800 126.549,174.800 126.800 C 174.800 127.046,174.584 127.114,174.320 126.950 C 173.947 126.720,173.947 126.618,174.322 126.493 C 174.588 126.404,174.703 126.167,174.579 125.966 C 174.193 125.342,174.673 125.564,175.251 126.277 M193.906 137.752 C 193.525 138.042,193.312 138.378,193.433 138.499 C 193.554 138.621,193.477 138.829,193.262 138.962 C 193.046 139.095,192.904 138.978,192.946 138.702 C 193.070 137.886,193.613 137.199,194.124 137.213 C 194.389 137.220,194.292 137.459,193.906 137.752 M158.485 144.122 C 158.302 145.690,159.382 146.990,160.024 145.974 C 160.323 145.503,160.389 145.525,160.394 146.100 C 160.401 146.971,164.777 147.168,164.832 146.300 C 164.857 145.900,164.904 145.900,165.065 146.300 C 165.176 146.575,165.442 146.800,165.657 146.800 C 165.872 146.800,165.918 146.575,165.759 146.300 C 165.601 146.025,165.624 145.938,165.809 146.107 C 165.995 146.275,166.158 147.265,166.173 148.307 L 166.200 150.200 168.772 150.319 C 171.514 150.447,172.791 151.272,173.620 153.453 C 174.012 154.483,175.124 154.694,175.979 153.900 C 176.410 153.500,176.461 153.500,176.235 153.900 C 176.049 154.230,176.234 154.400,176.776 154.400 C 177.242 154.400,177.600 154.661,177.600 155.000 C 177.600 155.330,177.774 155.600,177.987 155.600 C 178.201 155.600,178.282 155.843,178.167 156.141 C 177.802 157.093,179.804 158.000,182.286 158.006 C 183.559 158.009,184.870 158.187,185.200 158.400 C 185.600 158.658,185.633 158.790,185.300 158.794 C 184.640 158.802,184.662 160.058,185.339 160.984 C 185.768 161.571,186.558 161.753,189.228 161.883 C 193.156 162.073,192.843 161.895,192.872 163.958 C 192.887 165.043,193.074 165.600,193.424 165.600 C 193.750 165.600,193.891 165.271,193.790 164.746 C 193.699 164.276,193.754 164.021,193.913 164.179 C 194.071 164.337,194.200 164.677,194.200 164.933 C 194.200 165.606,197.517 165.760,198.330 165.124 C 198.924 164.660,198.941 164.676,198.477 165.269 C 198.024 165.847,198.144 166.112,199.360 167.218 C 200.134 167.923,200.730 168.701,200.684 168.949 C 200.638 169.197,201.050 169.420,201.600 169.443 C 204.129 169.553,204.400 169.629,204.400 170.224 C 204.400 170.567,204.568 170.744,204.772 170.617 C 204.977 170.491,205.261 170.574,205.402 170.803 C 205.544 171.032,205.444 171.170,205.180 171.110 C 204.412 170.934,204.305 171.848,205.011 172.554 C 205.776 173.318,207.197 173.413,207.206 172.700 C 207.210 172.390,207.324 172.352,207.506 172.600 C 207.968 173.229,208.895 173.293,209.257 172.721 C 209.511 172.321,209.589 172.317,209.594 172.700 C 209.597 172.975,210.050 173.200,210.600 173.200 C 211.150 173.200,211.611 173.335,211.626 173.500 C 211.803 175.588,211.950 176.483,212.146 176.680 C 212.687 177.221,217.639 177.265,218.293 176.735 C 218.672 176.428,218.834 176.399,218.674 176.666 C 218.521 176.922,218.612 177.204,218.878 177.293 C 219.143 177.381,219.369 178.161,219.380 179.027 L 219.400 180.600 221.600 180.723 C 222.810 180.791,223.980 181.028,224.200 181.251 C 224.467 181.522,224.467 181.620,224.200 181.546 C 221.903 180.906,218.872 183.143,219.870 184.741 C 220.204 185.275,220.131 185.645,219.551 186.361 C 219.138 186.871,218.800 187.078,218.800 186.821 C 218.800 186.562,218.576 186.479,218.300 186.635 C 217.931 186.843,217.937 186.770,218.320 186.359 C 218.606 186.051,219.011 185.800,219.220 185.800 C 220.343 185.800,219.386 184.991,218.203 184.940 C 217.380 184.905,216.797 185.070,216.794 185.340 C 216.790 185.598,216.624 185.541,216.415 185.211 C 215.810 184.254,215.403 185.849,215.947 187.044 C 216.499 188.256,216.530 188.821,216.000 188.000 C 215.685 187.512,215.611 187.564,215.606 188.276 C 215.603 188.758,215.392 189.281,215.138 189.438 C 214.852 189.615,214.785 189.548,214.962 189.262 C 215.133 188.985,214.987 188.800,214.600 188.800 C 214.189 188.800,214.062 188.982,214.253 189.300 C 214.480 189.678,214.413 189.694,213.977 189.366 C 213.477 188.990,211.345 188.901,208.600 189.142 C 207.932 189.201,207.899 189.276,208.400 189.600 C 208.827 189.876,208.851 189.990,208.482 189.994 C 208.198 189.997,207.994 190.225,208.030 190.500 C 208.307 192.636,208.122 192.800,205.433 192.800 C 203.755 192.800,202.796 192.973,202.664 193.300 C 202.511 193.676,202.356 193.652,202.037 193.200 C 201.725 192.759,201.611 192.739,201.606 193.124 C 201.603 193.417,201.397 193.522,201.138 193.362 C 200.852 193.185,200.785 193.252,200.962 193.538 C 201.119 193.792,201.027 194.000,200.757 194.000 C 200.487 194.000,200.382 194.116,200.524 194.257 C 200.665 194.398,201.019 194.353,201.309 194.157 C 201.600 193.961,201.514 194.099,201.119 194.464 C 200.723 194.829,200.400 195.390,200.400 195.709 C 200.400 196.129,199.684 196.363,197.805 196.555 C 194.814 196.862,194.000 197.111,194.000 197.723 C 194.000 198.015,194.159 198.001,194.480 197.680 C 194.744 197.416,195.138 197.200,195.356 197.200 C 195.575 197.200,195.411 197.450,194.993 197.756 C 194.575 198.061,193.974 198.211,193.657 198.090 C 193.208 197.918,193.139 198.103,193.345 198.925 C 193.571 199.823,193.459 200.020,192.605 200.234 C 192.052 200.373,191.579 200.782,191.554 201.143 C 191.512 201.734,191.489 201.732,191.329 201.127 C 191.153 200.457,189.600 200.262,189.600 200.909 C 189.600 201.095,189.404 201.126,189.165 200.978 C 188.885 200.805,188.758 201.118,188.808 201.855 C 188.938 203.782,188.835 204.000,187.800 204.000 C 187.250 204.000,186.797 204.225,186.794 204.500 C 186.789 204.878,186.714 204.884,186.486 204.525 C 186.165 204.021,182.252 204.015,181.749 204.518 C 181.482 204.785,181.309 205.720,181.233 207.300 C 181.215 207.685,180.919 208.000,180.576 208.000 C 180.184 208.000,180.064 208.185,180.253 208.500 C 180.441 208.812,180.288 208.785,179.846 208.426 C 179.232 207.927,179.091 207.927,178.776 208.426 C 178.549 208.784,178.410 208.821,178.406 208.525 C 178.397 207.854,176.700 208.045,176.099 208.784 C 175.658 209.326,175.627 209.316,175.842 208.700 C 176.129 207.874,175.116 207.722,174.505 208.500 C 173.854 209.330,173.523 211.691,174.106 211.356 C 174.378 211.200,174.461 211.225,174.291 211.412 C 174.121 211.599,173.066 211.703,171.947 211.644 C 170.416 211.563,169.989 211.658,170.218 212.030 C 170.412 212.343,170.359 212.422,170.074 212.245 C 169.314 211.776,167.166 213.177,166.731 214.426 C 166.384 215.421,166.099 215.607,164.861 215.646 C 162.176 215.731,162.202 215.715,162.159 217.308 C 162.108 219.167,162.182 219.100,160.000 219.256 L 158.200 219.384 158.098 181.092 C 158.042 160.031,158.141 142.800,158.318 142.800 C 158.495 142.800,158.570 143.395,158.485 144.122 M208.564 146.360 C 209.081 146.932,209.131 147.196,208.764 147.422 C 208.464 147.608,208.379 147.557,208.545 147.289 C 208.693 147.050,208.410 146.572,207.918 146.227 C 207.425 145.882,207.214 145.600,207.449 145.600 C 207.684 145.600,208.186 145.942,208.564 146.360 M259.953 186.500 C 259.927 186.775,259.927 187.135,259.953 187.300 C 259.979 187.465,259.865 187.579,259.700 187.553 C 258.967 187.437,258.400 187.632,258.400 188.000 C 258.400 188.613,259.468 188.475,260.171 187.771 C 260.517 187.426,260.800 186.886,260.800 186.571 C 260.800 185.870,260.019 185.804,259.953 186.500 M203.535 195.681 C 203.806 195.263,203.965 195.275,204.355 195.745 C 204.676 196.133,204.701 196.414,204.428 196.583 C 203.888 196.917,202.398 196.108,202.406 195.486 C 202.410 195.180,202.558 195.222,202.806 195.600 C 203.121 196.080,203.267 196.097,203.535 195.681 M243.107 196.479 C 242.907 197.079,242.213 196.907,242.071 196.223 C 241.982 195.795,242.142 195.680,242.588 195.851 C 242.943 195.987,243.177 196.270,243.107 196.479 M242.821 197.987 C 242.329 198.291,242.330 198.435,242.826 199.046 C 243.180 199.483,243.209 199.639,242.902 199.455 C 241.831 198.811,241.607 197.770,242.525 197.701 C 243.176 197.652,243.249 197.723,242.821 197.987 M195.953 198.300 C 195.927 198.465,195.949 198.735,196.003 198.900 C 196.056 199.065,196.131 199.425,196.168 199.700 C 196.206 199.975,196.467 200.151,196.748 200.090 C 197.032 200.029,197.138 200.176,196.988 200.420 C 196.809 200.709,196.381 200.546,195.742 199.946 L 194.769 199.032 194.538 199.916 C 194.411 200.402,194.141 200.800,193.939 200.800 C 193.497 200.800,194.140 199.517,195.026 198.631 C 195.713 197.944,196.027 197.832,195.953 198.300 M175.979 211.560 C 176.289 212.140,176.240 212.376,175.772 212.555 C 175.422 212.690,175.263 212.621,175.403 212.395 C 175.537 212.178,175.412 211.986,175.124 211.968 C 174.718 211.944,174.713 211.891,175.102 211.734 C 175.379 211.623,175.503 211.367,175.379 211.166 C 175.255 210.965,175.247 210.800,175.362 210.800 C 175.478 210.800,175.755 211.142,175.979 211.560 M216.852 211.337 C 216.607 211.632,216.540 212.021,216.703 212.201 C 216.867 212.381,216.787 212.406,216.528 212.258 C 216.268 212.109,215.942 212.170,215.804 212.393 C 215.554 212.797,216.052 212.953,217.200 212.831 C 217.706 212.777,217.712 212.826,217.237 213.146 C 216.881 213.386,216.361 213.383,215.823 213.137 C 214.797 212.670,214.638 211.232,215.641 211.495 C 216.009 211.591,216.431 211.474,216.578 211.235 C 216.726 210.996,216.949 210.800,217.073 210.800 C 217.197 210.800,217.097 211.042,216.852 211.337 M83.018 330.618 C 81.929 331.707,81.682 333.005,82.500 333.335 C 82.775 333.446,82.370 333.570,81.600 333.611 C 78.390 333.781,78.599 333.628,78.611 335.800 C 78.621 337.792,78.616 337.800,77.300 337.830 C 73.766 337.912,73.967 347.416,77.514 347.928 C 78.003 347.998,78.419 348.357,78.443 348.728 C 78.466 349.098,78.513 349.850,78.546 350.400 C 78.641 351.997,79.086 352.333,81.100 352.333 C 82.142 352.333,83.128 352.123,83.291 351.867 C 83.511 351.521,83.589 351.530,83.594 351.900 C 83.599 352.299,106.800 352.400,198.249 352.400 C 300.880 352.400,312.845 352.336,312.392 351.791 C 311.970 351.282,311.994 351.223,312.543 351.434 C 312.905 351.572,313.200 351.836,313.200 352.020 C 313.200 352.532,317.160 352.386,317.497 351.862 C 317.661 351.608,317.821 350.950,317.854 350.400 C 317.887 349.850,317.934 349.129,317.957 348.798 C 317.981 348.466,318.545 347.954,319.211 347.659 C 320.871 346.924,321.564 345.072,321.465 341.629 C 321.374 338.476,320.999 337.874,319.100 337.830 C 317.784 337.800,317.779 337.792,317.789 335.800 C 317.801 333.649,317.929 333.750,315.076 333.643 C 314.419 333.618,314.058 333.430,314.206 333.190 C 314.568 332.604,314.008 330.348,313.567 330.620 C 313.365 330.745,313.197 330.612,313.194 330.324 C 313.189 329.943,313.082 329.964,312.800 330.400 C 312.469 330.913,312.411 330.898,312.406 330.300 C 312.399 329.491,310.977 329.327,310.665 330.100 C 310.504 330.500,310.457 330.500,310.432 330.100 C 310.406 329.701,287.683 329.600,198.233 329.600 C 108.874 329.600,86.026 329.702,85.865 330.100 C 85.704 330.500,85.657 330.500,85.632 330.100 C 85.578 329.252,84.090 329.547,83.018 330.618 M252.932 333.500 C 222.975 333.557,173.835 333.557,143.732 333.500 C 113.630 333.443,138.140 333.397,198.200 333.397 C 258.260 333.397,282.890 333.443,252.932 333.500 M319.739 344.556 C 319.333 345.111,318.756 345.665,318.457 345.787 C 318.159 345.908,318.429 345.404,319.057 344.666 C 320.369 343.126,320.841 343.050,319.739 344.556 " stroke="none" fill="#949494" fill-rule="evenodd"></path><path id="path1" d="M74.000 70.698 C 203.854 70.965,372.275 70.969,371.862 70.706 C 371.608 70.544,293.370 70.454,198.000 70.505 C 102.630 70.555,46.830 70.642,74.000 70.698 M111.533 72.700 C 159.346 72.756,237.466 72.756,285.133 72.700 C 332.800 72.644,293.680 72.598,198.200 72.598 C 102.720 72.598,63.720 72.644,111.533 72.700 M24.499 182.900 L 24.400 292.000 198.100 291.900 L 371.800 291.801 198.301 291.700 L 24.801 291.599 24.700 182.700 L 24.599 73.800 24.499 182.900 M374.597 183.000 C 374.597 242.840,374.643 267.260,374.700 237.268 C 374.757 207.275,374.757 158.315,374.700 128.468 C 374.643 98.620,374.597 123.160,374.597 183.000 M160.971 120.447 C 160.764 120.781,160.871 120.858,161.309 120.690 C 161.660 120.555,162.036 120.619,162.144 120.832 C 162.252 121.046,162.297 121.002,162.245 120.735 C 162.110 120.045,161.329 119.868,160.971 120.447 M175.400 124.800 C 175.264 125.020,175.208 125.214,175.276 125.231 C 176.593 125.557,176.817 125.503,176.373 124.968 C 175.813 124.293,175.723 124.277,175.400 124.800 M172.400 126.000 C 172.400 126.220,172.567 126.400,172.772 126.400 C 172.977 126.400,173.202 126.791,173.272 127.269 C 173.355 127.835,173.708 128.159,174.285 128.201 C 175.165 128.264,175.164 128.258,174.185 127.351 C 173.643 126.849,173.200 126.250,173.200 126.019 C 173.200 125.789,173.020 125.600,172.800 125.600 C 172.580 125.600,172.400 125.780,172.400 126.000 M174.579 125.966 C 174.703 126.167,174.588 126.404,174.322 126.493 C 173.947 126.618,173.947 126.720,174.320 126.950 C 174.584 127.114,174.800 127.046,174.800 126.800 C 174.800 126.549,175.019 126.484,175.300 126.653 C 175.640 126.857,175.624 126.737,175.251 126.277 C 174.673 125.564,174.193 125.342,174.579 125.966 M193.335 137.700 C 192.863 138.455,192.818 139.236,193.262 138.962 C 193.477 138.829,193.554 138.621,193.433 138.499 C 193.312 138.378,193.525 138.042,193.906 137.752 C 194.292 137.459,194.389 137.220,194.124 137.213 C 193.862 137.206,193.507 137.425,193.335 137.700 M207.918 146.227 C 208.410 146.572,208.693 147.050,208.545 147.289 C 208.379 147.557,208.464 147.608,208.764 147.422 C 209.308 147.086,208.235 145.600,207.449 145.600 C 207.214 145.600,207.425 145.882,207.918 146.227 M241.600 166.401 C 241.600 167.032,242.299 167.203,242.734 166.679 C 243.054 166.294,242.965 166.153,242.380 166.108 C 241.951 166.076,241.600 166.208,241.600 166.401 M219.690 185.252 C 219.751 185.533,219.584 185.772,219.320 185.782 C 219.056 185.792,218.606 186.051,218.320 186.359 C 218.019 186.683,217.996 186.808,218.266 186.656 C 218.522 186.513,218.792 186.559,218.866 186.760 C 218.940 186.961,219.315 186.703,219.701 186.187 C 220.143 185.594,220.250 185.154,219.991 184.994 C 219.765 184.855,219.630 184.971,219.690 185.252 M259.100 186.794 C 257.951 188.001,257.531 188.926,258.632 187.825 C 258.980 187.477,259.458 187.312,259.694 187.458 C 259.937 187.608,260.008 187.537,259.858 187.294 C 259.712 187.058,259.877 186.580,260.225 186.232 C 260.573 185.885,260.709 185.609,260.529 185.619 C 260.348 185.630,259.705 186.158,259.100 186.794 M202.000 193.200 C 202.000 193.420,201.865 193.555,201.700 193.500 C 201.535 193.445,201.370 193.560,201.334 193.755 C 201.298 193.951,201.028 194.263,200.734 194.449 C 200.440 194.635,200.380 194.785,200.600 194.781 C 201.525 194.764,203.310 192.800,202.400 192.800 C 202.180 192.800,202.000 192.980,202.000 193.200 M202.406 195.486 C 202.398 196.108,203.888 196.917,204.428 196.583 C 204.701 196.414,204.676 196.133,204.355 195.745 C 203.965 195.275,203.806 195.263,203.535 195.681 C 203.267 196.097,203.121 196.080,202.806 195.600 C 202.558 195.222,202.410 195.180,202.406 195.486 M242.071 196.223 C 242.213 196.907,242.907 197.079,243.107 196.479 C 243.177 196.270,242.943 195.987,242.588 195.851 C 242.142 195.680,241.982 195.795,242.071 196.223 M242.032 198.461 C 242.237 198.843,242.628 199.290,242.902 199.455 C 243.209 199.639,243.180 199.483,242.826 199.046 C 242.330 198.435,242.329 198.291,242.821 197.987 C 243.249 197.723,243.176 197.652,242.525 197.701 C 241.834 197.753,241.735 197.905,242.032 198.461 M195.026 198.631 C 194.140 199.517,193.497 200.800,193.939 200.800 C 194.141 200.800,194.411 200.402,194.538 199.916 L 194.769 199.032 195.742 199.946 C 196.381 200.546,196.809 200.709,196.988 200.420 C 197.138 200.176,197.032 200.029,196.748 200.090 C 196.467 200.151,196.206 199.975,196.168 199.700 C 196.131 199.425,196.056 199.065,196.003 198.900 C 195.949 198.735,195.927 198.465,195.953 198.300 C 196.027 197.832,195.713 197.944,195.026 198.631 M175.379 211.166 C 175.503 211.367,175.379 211.623,175.102 211.734 C 174.713 211.891,174.718 211.944,175.124 211.968 C 175.412 211.986,175.537 212.178,175.403 212.395 C 175.263 212.621,175.422 212.690,175.772 212.555 C 176.347 212.335,175.988 210.800,175.362 210.800 C 175.247 210.800,175.255 210.965,175.379 211.166 M216.578 211.235 C 216.431 211.474,216.009 211.591,215.641 211.495 C 214.638 211.232,214.797 212.670,215.823 213.137 C 216.361 213.383,216.881 213.386,217.237 213.146 C 217.712 212.826,217.706 212.777,217.200 212.831 C 216.052 212.953,215.554 212.797,215.804 212.393 C 215.942 212.170,216.268 212.109,216.528 212.258 C 216.787 212.406,216.867 212.381,216.703 212.201 C 216.540 212.021,216.607 211.632,216.852 211.337 C 217.097 211.042,217.197 210.800,217.073 210.800 C 216.949 210.800,216.726 210.996,216.578 211.235 M143.732 333.500 C 173.835 333.557,222.975 333.557,252.932 333.500 C 282.890 333.443,258.260 333.397,198.200 333.397 C 138.140 333.397,113.630 333.443,143.732 333.500 M319.057 344.666 C 318.429 345.404,318.159 345.908,318.457 345.787 C 319.031 345.553,320.576 343.623,320.339 343.435 C 320.263 343.374,319.686 343.928,319.057 344.666 " stroke="none" fill="#989494" fill-rule="evenodd"></path><path id="path2" d="M74.000 70.698 C 203.854 70.965,372.275 70.969,371.862 70.706 C 371.608 70.544,293.370 70.454,198.000 70.505 C 102.630 70.555,46.830 70.642,74.000 70.698 M111.533 72.700 C 159.346 72.756,237.466 72.756,285.133 72.700 C 332.800 72.644,293.680 72.598,198.200 72.598 C 102.720 72.598,63.720 72.644,111.533 72.700 M24.499 182.900 L 24.400 292.000 198.100 291.900 L 371.800 291.801 198.301 291.700 L 24.801 291.599 24.700 182.700 L 24.599 73.800 24.499 182.900 M374.597 183.000 C 374.597 242.840,374.643 267.260,374.700 237.268 C 374.757 207.275,374.757 158.315,374.700 128.468 C 374.643 98.620,374.597 123.160,374.597 183.000 M160.971 120.447 C 160.764 120.781,160.871 120.858,161.309 120.690 C 161.660 120.555,162.036 120.619,162.144 120.832 C 162.252 121.046,162.297 121.002,162.245 120.735 C 162.110 120.045,161.329 119.868,160.971 120.447 M175.400 124.800 C 175.264 125.020,175.208 125.214,175.276 125.231 C 176.593 125.557,176.817 125.503,176.373 124.968 C 175.813 124.293,175.723 124.277,175.400 124.800 M172.400 126.000 C 172.400 126.220,172.567 126.400,172.772 126.400 C 172.977 126.400,173.202 126.791,173.272 127.269 C 173.355 127.835,173.708 128.159,174.285 128.201 C 175.165 128.264,175.164 128.258,174.185 127.351 C 173.643 126.849,173.200 126.250,173.200 126.019 C 173.200 125.789,173.020 125.600,172.800 125.600 C 172.580 125.600,172.400 125.780,172.400 126.000 M174.579 125.966 C 174.703 126.167,174.588 126.404,174.322 126.493 C 173.947 126.618,173.947 126.720,174.320 126.950 C 174.584 127.114,174.800 127.046,174.800 126.800 C 174.800 126.549,175.019 126.484,175.300 126.653 C 175.640 126.857,175.624 126.737,175.251 126.277 C 174.673 125.564,174.193 125.342,174.579 125.966 M193.335 137.700 C 192.863 138.455,192.818 139.236,193.262 138.962 C 193.477 138.829,193.554 138.621,193.433 138.499 C 193.312 138.378,193.525 138.042,193.906 137.752 C 194.292 137.459,194.389 137.220,194.124 137.213 C 193.862 137.206,193.507 137.425,193.335 137.700 M207.918 146.227 C 208.410 146.572,208.693 147.050,208.545 147.289 C 208.379 147.557,208.464 147.608,208.764 147.422 C 209.308 147.086,208.235 145.600,207.449 145.600 C 207.214 145.600,207.425 145.882,207.918 146.227 M241.600 166.401 C 241.600 167.032,242.299 167.203,242.734 166.679 C 243.054 166.294,242.965 166.153,242.380 166.108 C 241.951 166.076,241.600 166.208,241.600 166.401 M219.690 185.252 C 219.751 185.533,219.584 185.772,219.320 185.782 C 219.056 185.792,218.606 186.051,218.320 186.359 C 218.019 186.683,217.996 186.808,218.266 186.656 C 218.522 186.513,218.792 186.559,218.866 186.760 C 218.940 186.961,219.315 186.703,219.701 186.187 C 220.143 185.594,220.250 185.154,219.991 184.994 C 219.765 184.855,219.630 184.971,219.690 185.252 M259.100 186.794 C 257.951 188.001,257.531 188.926,258.632 187.825 C 258.980 187.477,259.458 187.312,259.694 187.458 C 259.937 187.608,260.008 187.537,259.858 187.294 C 259.712 187.058,259.877 186.580,260.225 186.232 C 260.573 185.885,260.709 185.609,260.529 185.619 C 260.348 185.630,259.705 186.158,259.100 186.794 M202.000 193.200 C 202.000 193.420,201.865 193.555,201.700 193.500 C 201.535 193.445,201.370 193.560,201.334 193.755 C 201.298 193.951,201.028 194.263,200.734 194.449 C 200.440 194.635,200.380 194.785,200.600 194.781 C 201.525 194.764,203.310 192.800,202.400 192.800 C 202.180 192.800,202.000 192.980,202.000 193.200 M202.406 195.486 C 202.398 196.108,203.888 196.917,204.428 196.583 C 204.701 196.414,204.676 196.133,204.355 195.745 C 203.965 195.275,203.806 195.263,203.535 195.681 C 203.267 196.097,203.121 196.080,202.806 195.600 C 202.558 195.222,202.410 195.180,202.406 195.486 M242.071 196.223 C 242.213 196.907,242.907 197.079,243.107 196.479 C 243.177 196.270,242.943 195.987,242.588 195.851 C 242.142 195.680,241.982 195.795,242.071 196.223 M242.032 198.461 C 242.237 198.843,242.628 199.290,242.902 199.455 C 243.209 199.639,243.180 199.483,242.826 199.046 C 242.330 198.435,242.329 198.291,242.821 197.987 C 243.249 197.723,243.176 197.652,242.525 197.701 C 241.834 197.753,241.735 197.905,242.032 198.461 M195.026 198.631 C 194.140 199.517,193.497 200.800,193.939 200.800 C 194.141 200.800,194.411 200.402,194.538 199.916 L 194.769 199.032 195.742 199.946 C 196.381 200.546,196.809 200.709,196.988 200.420 C 197.138 200.176,197.032 200.029,196.748 200.090 C 196.467 200.151,196.206 199.975,196.168 199.700 C 196.131 199.425,196.056 199.065,196.003 198.900 C 195.949 198.735,195.927 198.465,195.953 198.300 C 196.027 197.832,195.713 197.944,195.026 198.631 M175.379 211.166 C 175.503 211.367,175.379 211.623,175.102 211.734 C 174.713 211.891,174.718 211.944,175.124 211.968 C 175.412 211.986,175.537 212.178,175.403 212.395 C 175.263 212.621,175.422 212.690,175.772 212.555 C 176.347 212.335,175.988 210.800,175.362 210.800 C 175.247 210.800,175.255 210.965,175.379 211.166 M216.578 211.235 C 216.431 211.474,216.009 211.591,215.641 211.495 C 214.638 211.232,214.797 212.670,215.823 213.137 C 216.361 213.383,216.881 213.386,217.237 213.146 C 217.712 212.826,217.706 212.777,217.200 212.831 C 216.052 212.953,215.554 212.797,215.804 212.393 C 215.942 212.170,216.268 212.109,216.528 212.258 C 216.787 212.406,216.867 212.381,216.703 212.201 C 216.540 212.021,216.607 211.632,216.852 211.337 C 217.097 211.042,217.197 210.800,217.073 210.800 C 216.949 210.800,216.726 210.996,216.578 211.235 M143.732 333.500 C 173.835 333.557,222.975 333.557,252.932 333.500 C 282.890 333.443,258.260 333.397,198.200 333.397 C 138.140 333.397,113.630 333.443,143.732 333.500 M319.057 344.666 C 318.429 345.404,318.159 345.908,318.457 345.787 C 319.031 345.553,320.576 343.623,320.339 343.435 C 320.263 343.374,319.686 343.928,319.057 344.666 " stroke="none" fill="#989494" fill-rule="evenodd"></path><path id="path3" d="M74.000 70.698 C 203.854 70.965,372.275 70.969,371.862 70.706 C 371.608 70.544,293.370 70.454,198.000 70.505 C 102.630 70.555,46.830 70.642,74.000 70.698 M111.533 72.700 C 159.346 72.756,237.466 72.756,285.133 72.700 C 332.800 72.644,293.680 72.598,198.200 72.598 C 102.720 72.598,63.720 72.644,111.533 72.700 M24.499 182.900 L 24.400 292.000 198.100 291.900 L 371.800 291.801 198.301 291.700 L 24.801 291.599 24.700 182.700 L 24.599 73.800 24.499 182.900 M374.597 183.000 C 374.597 242.840,374.643 267.260,374.700 237.268 C 374.757 207.275,374.757 158.315,374.700 128.468 C 374.643 98.620,374.597 123.160,374.597 183.000 M160.971 120.447 C 160.764 120.781,160.871 120.858,161.309 120.690 C 161.660 120.555,162.036 120.619,162.144 120.832 C 162.252 121.046,162.297 121.002,162.245 120.735 C 162.110 120.045,161.329 119.868,160.971 120.447 M175.400 124.800 C 175.264 125.020,175.208 125.214,175.276 125.231 C 176.593 125.557,176.817 125.503,176.373 124.968 C 175.813 124.293,175.723 124.277,175.400 124.800 M172.400 126.000 C 172.400 126.220,172.567 126.400,172.772 126.400 C 172.977 126.400,173.202 126.791,173.272 127.269 C 173.355 127.835,173.708 128.159,174.285 128.201 C 175.165 128.264,175.164 128.258,174.185 127.351 C 173.643 126.849,173.200 126.250,173.200 126.019 C 173.200 125.789,173.020 125.600,172.800 125.600 C 172.580 125.600,172.400 125.780,172.400 126.000 M174.579 125.966 C 174.703 126.167,174.588 126.404,174.322 126.493 C 173.947 126.618,173.947 126.720,174.320 126.950 C 174.584 127.114,174.800 127.046,174.800 126.800 C 174.800 126.549,175.019 126.484,175.300 126.653 C 175.640 126.857,175.624 126.737,175.251 126.277 C 174.673 125.564,174.193 125.342,174.579 125.966 M193.335 137.700 C 192.863 138.455,192.818 139.236,193.262 138.962 C 193.477 138.829,193.554 138.621,193.433 138.499 C 193.312 138.378,193.525 138.042,193.906 137.752 C 194.292 137.459,194.389 137.220,194.124 137.213 C 193.862 137.206,193.507 137.425,193.335 137.700 M207.918 146.227 C 208.410 146.572,208.693 147.050,208.545 147.289 C 208.379 147.557,208.464 147.608,208.764 147.422 C 209.308 147.086,208.235 145.600,207.449 145.600 C 207.214 145.600,207.425 145.882,207.918 146.227 M241.600 166.401 C 241.600 167.032,242.299 167.203,242.734 166.679 C 243.054 166.294,242.965 166.153,242.380 166.108 C 241.951 166.076,241.600 166.208,241.600 166.401 M219.690 185.252 C 219.751 185.533,219.584 185.772,219.320 185.782 C 219.056 185.792,218.606 186.051,218.320 186.359 C 218.019 186.683,217.996 186.808,218.266 186.656 C 218.522 186.513,218.792 186.559,218.866 186.760 C 218.940 186.961,219.315 186.703,219.701 186.187 C 220.143 185.594,220.250 185.154,219.991 184.994 C 219.765 184.855,219.630 184.971,219.690 185.252 M259.100 186.794 C 257.951 188.001,257.531 188.926,258.632 187.825 C 258.980 187.477,259.458 187.312,259.694 187.458 C 259.937 187.608,260.008 187.537,259.858 187.294 C 259.712 187.058,259.877 186.580,260.225 186.232 C 260.573 185.885,260.709 185.609,260.529 185.619 C 260.348 185.630,259.705 186.158,259.100 186.794 M202.000 193.200 C 202.000 193.420,201.865 193.555,201.700 193.500 C 201.535 193.445,201.370 193.560,201.334 193.755 C 201.298 193.951,201.028 194.263,200.734 194.449 C 200.440 194.635,200.380 194.785,200.600 194.781 C 201.525 194.764,203.310 192.800,202.400 192.800 C 202.180 192.800,202.000 192.980,202.000 193.200 M202.406 195.486 C 202.398 196.108,203.888 196.917,204.428 196.583 C 204.701 196.414,204.676 196.133,204.355 195.745 C 203.965 195.275,203.806 195.263,203.535 195.681 C 203.267 196.097,203.121 196.080,202.806 195.600 C 202.558 195.222,202.410 195.180,202.406 195.486 M242.071 196.223 C 242.213 196.907,242.907 197.079,243.107 196.479 C 243.177 196.270,242.943 195.987,242.588 195.851 C 242.142 195.680,241.982 195.795,242.071 196.223 M242.032 198.461 C 242.237 198.843,242.628 199.290,242.902 199.455 C 243.209 199.639,243.180 199.483,242.826 199.046 C 242.330 198.435,242.329 198.291,242.821 197.987 C 243.249 197.723,243.176 197.652,242.525 197.701 C 241.834 197.753,241.735 197.905,242.032 198.461 M195.026 198.631 C 194.140 199.517,193.497 200.800,193.939 200.800 C 194.141 200.800,194.411 200.402,194.538 199.916 L 194.769 199.032 195.742 199.946 C 196.381 200.546,196.809 200.709,196.988 200.420 C 197.138 200.176,197.032 200.029,196.748 200.090 C 196.467 200.151,196.206 199.975,196.168 199.700 C 196.131 199.425,196.056 199.065,196.003 198.900 C 195.949 198.735,195.927 198.465,195.953 198.300 C 196.027 197.832,195.713 197.944,195.026 198.631 M175.379 211.166 C 175.503 211.367,175.379 211.623,175.102 211.734 C 174.713 211.891,174.718 211.944,175.124 211.968 C 175.412 211.986,175.537 212.178,175.403 212.395 C 175.263 212.621,175.422 212.690,175.772 212.555 C 176.347 212.335,175.988 210.800,175.362 210.800 C 175.247 210.800,175.255 210.965,175.379 211.166 M216.578 211.235 C 216.431 211.474,216.009 211.591,215.641 211.495 C 214.638 211.232,214.797 212.670,215.823 213.137 C 216.361 213.383,216.881 213.386,217.237 213.146 C 217.712 212.826,217.706 212.777,217.200 212.831 C 216.052 212.953,215.554 212.797,215.804 212.393 C 215.942 212.170,216.268 212.109,216.528 212.258 C 216.787 212.406,216.867 212.381,216.703 212.201 C 216.540 212.021,216.607 211.632,216.852 211.337 C 217.097 211.042,217.197 210.800,217.073 210.800 C 216.949 210.800,216.726 210.996,216.578 211.235 M143.732 333.500 C 173.835 333.557,222.975 333.557,252.932 333.500 C 282.890 333.443,258.260 333.397,198.200 333.397 C 138.140 333.397,113.630 333.443,143.732 333.500 M319.057 344.666 C 318.429 345.404,318.159 345.908,318.457 345.787 C 319.031 345.553,320.576 343.623,320.339 343.435 C 320.263 343.374,319.686 343.928,319.057 344.666 " stroke="none" fill="#989494" fill-rule="evenodd"></path><path id="path4" d="M74.000 70.698 C 203.854 70.965,372.275 70.969,371.862 70.706 C 371.608 70.544,293.370 70.454,198.000 70.505 C 102.630 70.555,46.830 70.642,74.000 70.698 M111.533 72.700 C 159.346 72.756,237.466 72.756,285.133 72.700 C 332.800 72.644,293.680 72.598,198.200 72.598 C 102.720 72.598,63.720 72.644,111.533 72.700 M24.499 182.900 L 24.400 292.000 198.100 291.900 L 371.800 291.801 198.301 291.700 L 24.801 291.599 24.700 182.700 L 24.599 73.800 24.499 182.900 M374.597 183.000 C 374.597 242.840,374.643 267.260,374.700 237.268 C 374.757 207.275,374.757 158.315,374.700 128.468 C 374.643 98.620,374.597 123.160,374.597 183.000 M160.971 120.447 C 160.764 120.781,160.871 120.858,161.309 120.690 C 161.660 120.555,162.036 120.619,162.144 120.832 C 162.252 121.046,162.297 121.002,162.245 120.735 C 162.110 120.045,161.329 119.868,160.971 120.447 M175.400 124.800 C 175.264 125.020,175.208 125.214,175.276 125.231 C 176.593 125.557,176.817 125.503,176.373 124.968 C 175.813 124.293,175.723 124.277,175.400 124.800 M172.400 126.000 C 172.400 126.220,172.567 126.400,172.772 126.400 C 172.977 126.400,173.202 126.791,173.272 127.269 C 173.355 127.835,173.708 128.159,174.285 128.201 C 175.165 128.264,175.164 128.258,174.185 127.351 C 173.643 126.849,173.200 126.250,173.200 126.019 C 173.200 125.789,173.020 125.600,172.800 125.600 C 172.580 125.600,172.400 125.780,172.400 126.000 M174.579 125.966 C 174.703 126.167,174.588 126.404,174.322 126.493 C 173.947 126.618,173.947 126.720,174.320 126.950 C 174.584 127.114,174.800 127.046,174.800 126.800 C 174.800 126.549,175.019 126.484,175.300 126.653 C 175.640 126.857,175.624 126.737,175.251 126.277 C 174.673 125.564,174.193 125.342,174.579 125.966 M193.335 137.700 C 192.863 138.455,192.818 139.236,193.262 138.962 C 193.477 138.829,193.554 138.621,193.433 138.499 C 193.312 138.378,193.525 138.042,193.906 137.752 C 194.292 137.459,194.389 137.220,194.124 137.213 C 193.862 137.206,193.507 137.425,193.335 137.700 M207.918 146.227 C 208.410 146.572,208.693 147.050,208.545 147.289 C 208.379 147.557,208.464 147.608,208.764 147.422 C 209.308 147.086,208.235 145.600,207.449 145.600 C 207.214 145.600,207.425 145.882,207.918 146.227 M241.600 166.401 C 241.600 167.032,242.299 167.203,242.734 166.679 C 243.054 166.294,242.965 166.153,242.380 166.108 C 241.951 166.076,241.600 166.208,241.600 166.401 M219.690 185.252 C 219.751 185.533,219.584 185.772,219.320 185.782 C 219.056 185.792,218.606 186.051,218.320 186.359 C 218.019 186.683,217.996 186.808,218.266 186.656 C 218.522 186.513,218.792 186.559,218.866 186.760 C 218.940 186.961,219.315 186.703,219.701 186.187 C 220.143 185.594,220.250 185.154,219.991 184.994 C 219.765 184.855,219.630 184.971,219.690 185.252 M259.100 186.794 C 257.951 188.001,257.531 188.926,258.632 187.825 C 258.980 187.477,259.458 187.312,259.694 187.458 C 259.937 187.608,260.008 187.537,259.858 187.294 C 259.712 187.058,259.877 186.580,260.225 186.232 C 260.573 185.885,260.709 185.609,260.529 185.619 C 260.348 185.630,259.705 186.158,259.100 186.794 M202.000 193.200 C 202.000 193.420,201.865 193.555,201.700 193.500 C 201.535 193.445,201.370 193.560,201.334 193.755 C 201.298 193.951,201.028 194.263,200.734 194.449 C 200.440 194.635,200.380 194.785,200.600 194.781 C 201.525 194.764,203.310 192.800,202.400 192.800 C 202.180 192.800,202.000 192.980,202.000 193.200 M202.406 195.486 C 202.398 196.108,203.888 196.917,204.428 196.583 C 204.701 196.414,204.676 196.133,204.355 195.745 C 203.965 195.275,203.806 195.263,203.535 195.681 C 203.267 196.097,203.121 196.080,202.806 195.600 C 202.558 195.222,202.410 195.180,202.406 195.486 M242.071 196.223 C 242.213 196.907,242.907 197.079,243.107 196.479 C 243.177 196.270,242.943 195.987,242.588 195.851 C 242.142 195.680,241.982 195.795,242.071 196.223 M242.032 198.461 C 242.237 198.843,242.628 199.290,242.902 199.455 C 243.209 199.639,243.180 199.483,242.826 199.046 C 242.330 198.435,242.329 198.291,242.821 197.987 C 243.249 197.723,243.176 197.652,242.525 197.701 C 241.834 197.753,241.735 197.905,242.032 198.461 M195.026 198.631 C 194.140 199.517,193.497 200.800,193.939 200.800 C 194.141 200.800,194.411 200.402,194.538 199.916 L 194.769 199.032 195.742 199.946 C 196.381 200.546,196.809 200.709,196.988 200.420 C 197.138 200.176,197.032 200.029,196.748 200.090 C 196.467 200.151,196.206 199.975,196.168 199.700 C 196.131 199.425,196.056 199.065,196.003 198.900 C 195.949 198.735,195.927 198.465,195.953 198.300 C 196.027 197.832,195.713 197.944,195.026 198.631 M175.379 211.166 C 175.503 211.367,175.379 211.623,175.102 211.734 C 174.713 211.891,174.718 211.944,175.124 211.968 C 175.412 211.986,175.537 212.178,175.403 212.395 C 175.263 212.621,175.422 212.690,175.772 212.555 C 176.347 212.335,175.988 210.800,175.362 210.800 C 175.247 210.800,175.255 210.965,175.379 211.166 M216.578 211.235 C 216.431 211.474,216.009 211.591,215.641 211.495 C 214.638 211.232,214.797 212.670,215.823 213.137 C 216.361 213.383,216.881 213.386,217.237 213.146 C 217.712 212.826,217.706 212.777,217.200 212.831 C 216.052 212.953,215.554 212.797,215.804 212.393 C 215.942 212.170,216.268 212.109,216.528 212.258 C 216.787 212.406,216.867 212.381,216.703 212.201 C 216.540 212.021,216.607 211.632,216.852 211.337 C 217.097 211.042,217.197 210.800,217.073 210.800 C 216.949 210.800,216.726 210.996,216.578 211.235 M143.732 333.500 C 173.835 333.557,222.975 333.557,252.932 333.500 C 282.890 333.443,258.260 333.397,198.200 333.397 C 138.140 333.397,113.630 333.443,143.732 333.500 M319.057 344.666 C 318.429 345.404,318.159 345.908,318.457 345.787 C 319.031 345.553,320.576 343.623,320.339 343.435 C 320.263 343.374,319.686 343.928,319.057 344.666 " stroke="none" fill="#989494" fill-rule="evenodd"></path></g></svg>