<svg id="svg" xmlns="http://www.w3.org/2000/svg" xmlns:xlink="http://www.w3.org/1999/xlink" width="400" height="83.95061728395062" viewBox="0, 0, 400,83.95061728395062"><g id="svgg"><path id="path0" d="M348.875 22.776 C 348.710 22.843,348.667 26.848,348.667 42.014 L 348.667 61.167 354.000 61.167 L 359.333 61.167 359.333 57.500 C 359.333 53.944,359.343 53.833,359.667 53.833 C 359.911 53.833,360.000 53.722,360.000 53.417 C 360.000 53.053,360.073 53.000,360.570 53.000 C 361.369 53.000,361.663 52.854,361.693 52.441 C 361.707 52.244,361.764 52.458,361.818 52.917 C 361.901 53.618,361.976 53.758,362.292 53.803 C 362.563 53.842,362.667 53.968,362.667 54.262 C 362.667 54.583,362.753 54.667,363.083 54.667 C 363.472 54.667,363.500 54.722,363.500 55.500 C 363.500 56.222,363.544 56.333,363.833 56.333 C 364.111 56.333,364.167 56.444,364.167 57.004 C 364.167 57.550,364.241 57.708,364.567 57.856 C 364.869 57.994,364.995 58.219,365.078 58.769 C 365.164 59.344,365.256 59.500,365.510 59.500 C 365.744 59.500,365.833 59.616,365.833 59.917 C 365.833 60.250,365.917 60.333,366.250 60.333 C 366.583 60.333,366.667 60.417,366.667 60.750 L 366.667 61.167 372.747 61.167 L 378.827 61.167 378.929 60.762 C 379.074 60.184,378.866 59.667,378.489 59.667 C 378.256 59.667,378.167 59.551,378.167 59.250 C 378.167 58.919,378.083 58.833,377.760 58.833 C 377.400 58.833,377.347 58.751,377.301 58.125 C 377.262 57.578,377.165 57.379,376.875 57.252 C 376.645 57.151,376.500 56.942,376.500 56.710 C 376.500 56.422,376.405 56.333,376.092 56.333 C 375.725 56.333,375.680 56.256,375.634 55.542 C 375.591 54.866,375.528 54.742,375.208 54.697 C 374.892 54.652,374.833 54.541,374.833 53.984 C 374.833 53.434,374.764 53.299,374.417 53.167 C 374.124 53.055,374.000 52.883,374.000 52.587 C 374.000 52.287,373.911 52.167,373.688 52.167 C 373.452 52.167,373.349 52.001,373.267 51.483 C 373.189 50.998,373.062 50.775,372.829 50.714 C 372.618 50.659,372.500 50.486,372.500 50.231 C 372.500 49.920,372.411 49.833,372.092 49.833 C 371.725 49.833,371.680 49.756,371.634 49.042 C 371.592 48.379,371.525 48.242,371.226 48.199 C 370.941 48.158,370.845 47.994,370.754 47.388 C 370.673 46.846,370.551 46.605,370.330 46.547 C 370.159 46.503,369.996 46.308,369.968 46.115 C 369.937 45.906,369.748 45.717,369.500 45.648 C 369.118 45.543,369.114 45.532,369.448 45.517 C 369.748 45.503,369.833 45.369,369.924 44.759 C 370.012 44.172,370.109 44.008,370.393 43.968 C 370.613 43.936,370.770 43.776,370.802 43.552 C 370.834 43.325,370.991 43.168,371.219 43.135 C 371.449 43.102,371.603 42.946,371.637 42.708 C 371.671 42.469,371.805 42.333,372.008 42.333 C 372.208 42.333,372.365 42.180,372.430 41.923 C 372.487 41.697,372.672 41.468,372.841 41.414 C 373.053 41.347,373.183 41.087,373.260 40.575 C 373.346 39.999,373.441 39.833,373.686 39.833 C 373.910 39.833,374.000 39.714,374.000 39.417 C 374.000 39.083,374.083 39.000,374.417 39.000 C 374.747 39.000,374.833 38.916,374.833 38.595 C 374.833 38.302,374.937 38.175,375.208 38.137 C 375.528 38.091,375.591 37.967,375.634 37.292 C 375.680 36.577,375.725 36.500,376.092 36.500 C 376.389 36.500,376.500 36.409,376.500 36.167 C 376.500 35.922,376.611 35.833,376.917 35.833 C 377.247 35.833,377.333 35.749,377.333 35.428 C 377.333 35.135,377.437 35.008,377.708 34.970 C 378.028 34.924,378.091 34.801,378.134 34.125 L 378.185 33.333 372.096 33.333 L 366.006 33.333 365.903 33.744 C 365.847 33.970,365.662 34.199,365.492 34.252 C 365.280 34.320,365.150 34.580,365.073 35.092 C 364.977 35.731,364.907 35.833,364.564 35.833 C 364.251 35.833,364.167 35.922,364.167 36.250 C 364.167 36.556,364.078 36.667,363.833 36.667 C 363.591 36.667,363.500 36.778,363.500 37.072 C 363.500 37.365,363.396 37.492,363.125 37.530 C 362.805 37.576,362.743 37.699,362.699 38.375 C 362.653 39.090,362.609 39.167,362.241 39.167 C 361.944 39.167,361.833 39.258,361.833 39.500 C 361.833 39.744,361.722 39.833,361.417 39.833 C 361.087 39.833,361.000 39.917,361.000 40.238 C 361.000 40.532,360.896 40.658,360.625 40.697 C 360.305 40.742,360.243 40.866,360.199 41.542 C 360.153 42.256,360.109 42.333,359.742 42.333 L 359.336 42.333 359.293 32.542 L 359.250 22.750 354.167 22.720 C 351.371 22.704,348.990 22.729,348.875 22.776 M105.000 43.167 L 105.000 61.167 109.917 61.167 L 114.833 61.167 114.846 51.125 C 114.854 45.602,114.897 41.177,114.944 41.292 C 114.990 41.406,115.167 41.500,115.338 41.500 C 115.590 41.500,115.658 41.649,115.699 42.292 C 115.743 42.967,115.805 43.091,116.125 43.137 C 116.449 43.183,116.500 43.290,116.500 43.925 C 116.500 44.570,116.551 44.673,116.917 44.765 C 117.282 44.856,117.333 44.960,117.333 45.598 C 117.333 46.237,117.385 46.340,117.750 46.432 C 118.115 46.523,118.167 46.626,118.167 47.268 C 118.167 47.933,118.204 48.000,118.574 48.000 C 118.942 48.000,118.987 48.077,119.033 48.792 C 119.076 49.467,119.138 49.591,119.458 49.637 C 119.789 49.684,119.833 49.786,119.833 50.512 C 119.833 51.272,119.864 51.333,120.241 51.333 C 120.609 51.333,120.653 51.410,120.699 52.125 C 120.742 52.795,120.806 52.925,121.116 52.969 C 121.425 53.013,121.490 53.143,121.533 53.802 C 121.576 54.467,121.639 54.591,121.958 54.637 C 122.275 54.682,122.333 54.792,122.333 55.349 C 122.333 55.899,122.402 56.035,122.750 56.167 C 123.100 56.300,123.167 56.433,123.167 57.000 C 123.167 57.567,123.234 57.700,123.583 57.833 C 123.943 57.970,124.000 58.095,124.000 58.746 C 124.000 59.389,124.049 59.500,124.333 59.500 C 124.575 59.500,124.667 59.611,124.667 59.906 C 124.667 60.129,124.740 60.504,124.829 60.739 L 124.992 61.167 131.829 61.167 L 138.667 61.167 138.667 43.167 L 138.667 25.167 134.167 25.167 L 129.667 25.167 129.667 35.894 L 129.667 46.620 129.250 46.541 C 128.873 46.469,128.833 46.383,128.833 45.647 C 128.833 44.895,128.802 44.833,128.426 44.833 C 128.058 44.833,128.013 44.756,127.967 44.042 C 127.925 43.372,127.860 43.242,127.550 43.198 C 127.241 43.154,127.176 43.023,127.134 42.365 C 127.091 41.706,127.026 41.575,126.717 41.531 C 126.408 41.487,126.343 41.357,126.300 40.698 C 126.258 40.033,126.194 39.909,125.875 39.863 C 125.551 39.817,125.500 39.711,125.500 39.072 C 125.500 38.395,125.465 38.333,125.083 38.333 C 124.694 38.333,124.667 38.278,124.667 37.500 C 124.667 36.722,124.639 36.667,124.250 36.667 C 123.861 36.667,123.833 36.611,123.833 35.833 C 123.833 35.061,123.804 35.000,123.426 35.000 C 123.058 35.000,123.013 34.923,122.967 34.208 C 122.925 33.539,122.860 33.409,122.550 33.365 C 122.241 33.321,122.176 33.190,122.134 32.531 C 122.091 31.866,122.027 31.742,121.708 31.697 C 121.384 31.651,121.333 31.544,121.333 30.908 C 121.333 30.263,121.282 30.160,120.917 30.068 C 120.553 29.977,120.500 29.873,120.500 29.243 C 120.500 28.669,120.432 28.501,120.167 28.417 C 119.936 28.343,119.833 28.164,119.833 27.836 C 119.833 27.144,119.673 26.833,119.316 26.833 C 119.067 26.833,119.000 26.711,119.000 26.264 C 119.000 25.084,119.534 25.167,111.899 25.167 L 105.000 25.167 105.000 43.167 M240.833 29.667 L 240.833 34.167 244.917 34.167 L 249.000 34.167 249.000 47.667 L 249.000 61.167 254.333 61.167 L 259.667 61.167 259.667 47.667 L 259.667 34.167 263.750 34.167 L 267.833 34.167 267.833 29.667 L 267.833 25.167 254.333 25.167 L 240.833 25.167 240.833 29.667 M152.735 32.917 C 152.636 33.311,152.568 33.333,151.482 33.333 C 150.368 33.333,150.333 33.346,150.333 33.750 C 150.333 34.139,150.278 34.167,149.500 34.167 C 148.722 34.167,148.667 34.194,148.667 34.583 C 148.667 34.947,148.594 35.000,148.097 35.000 C 147.318 35.000,147.000 35.147,147.000 35.506 C 147.000 35.695,146.857 35.830,146.625 35.863 C 146.384 35.898,146.231 36.051,146.197 36.292 C 146.164 36.524,146.028 36.667,145.840 36.667 C 145.480 36.667,145.333 36.984,145.333 37.764 C 145.333 38.260,145.280 38.333,144.917 38.333 C 144.535 38.333,144.500 38.396,144.500 39.065 C 144.500 39.707,144.449 39.810,144.083 39.902 C 143.686 40.002,143.667 40.063,143.667 41.242 C 143.667 42.396,143.642 42.480,143.292 42.530 L 142.917 42.583 142.917 47.333 L 142.917 52.083 143.285 52.136 C 143.620 52.183,143.657 52.295,143.701 53.386 C 143.746 54.475,143.783 54.588,144.116 54.635 C 144.425 54.679,144.490 54.810,144.533 55.469 C 144.576 56.134,144.639 56.258,144.958 56.303 C 145.230 56.342,145.333 56.468,145.333 56.762 C 145.333 57.083,145.420 57.167,145.750 57.167 C 146.125 57.167,146.167 57.233,146.167 57.837 C 146.167 58.557,146.517 58.833,147.428 58.833 C 147.749 58.833,147.833 58.920,147.833 59.250 C 147.833 59.583,147.917 59.667,148.250 59.667 C 148.556 59.667,148.667 59.756,148.667 60.000 C 148.667 60.289,148.778 60.333,149.500 60.333 C 150.278 60.333,150.333 60.361,150.333 60.750 C 150.333 61.154,150.368 61.167,151.482 61.167 C 152.568 61.167,152.636 61.189,152.735 61.583 L 152.840 62.000 158.087 62.000 L 163.333 62.000 163.333 61.590 C 163.333 61.187,163.361 61.178,164.875 61.131 C 166.291 61.087,166.430 61.053,166.581 60.708 C 166.715 60.404,166.879 60.333,167.453 60.333 C 168.371 60.333,168.355 60.420,168.297 55.917 L 168.250 52.250 166.750 52.250 C 165.363 52.250,165.238 52.278,165.088 52.618 C 164.949 52.936,164.777 52.993,163.838 53.035 C 162.854 53.079,162.745 53.119,162.697 53.458 C 162.619 54.007,156.667 54.058,156.667 53.510 C 156.667 53.255,156.509 53.163,155.917 53.075 C 155.336 52.987,155.167 52.892,155.167 52.651 C 155.167 52.458,155.008 52.300,154.750 52.235 C 154.489 52.170,154.333 52.013,154.333 51.815 C 154.333 51.590,154.214 51.500,153.917 51.500 C 153.565 51.500,153.500 51.422,153.500 51.002 L 153.500 50.503 161.708 50.460 L 169.917 50.417 169.966 46.750 C 170.025 42.431,169.953 41.667,169.490 41.667 C 169.199 41.667,169.167 41.542,169.167 40.417 C 169.167 39.194,169.157 39.167,168.750 39.167 C 168.361 39.167,168.333 39.111,168.333 38.333 C 168.333 37.556,168.306 37.500,167.917 37.500 C 167.583 37.500,167.500 37.417,167.500 37.083 C 167.500 36.750,167.417 36.667,167.083 36.667 C 166.750 36.667,166.667 36.583,166.667 36.250 C 166.667 35.917,166.583 35.833,166.250 35.833 C 165.917 35.833,165.833 35.750,165.833 35.417 C 165.833 35.083,165.750 35.000,165.417 35.000 C 165.083 35.000,165.000 34.917,165.000 34.583 C 165.000 34.194,164.944 34.167,164.167 34.167 C 163.389 34.167,163.333 34.139,163.333 33.750 C 163.333 33.343,163.306 33.333,162.083 33.333 C 160.861 33.333,160.833 33.324,160.833 32.917 L 160.833 32.500 156.837 32.500 L 152.840 32.500 152.735 32.917 M224.444 32.611 C 224.383 32.672,224.333 32.860,224.333 33.028 C 224.333 33.297,224.184 33.333,223.083 33.333 C 221.869 33.333,221.833 33.345,221.833 33.741 C 221.833 34.109,221.756 34.153,221.042 34.199 C 220.366 34.243,220.242 34.305,220.197 34.625 C 220.156 34.914,220.034 35.000,219.669 35.000 C 218.872 35.000,218.689 35.156,218.572 35.931 C 218.477 36.564,218.407 36.667,218.064 36.667 C 217.698 36.667,217.667 36.733,217.667 37.500 C 217.667 38.222,217.622 38.333,217.333 38.333 C 216.820 38.333,216.812 44.649,217.325 44.783 C 217.578 44.849,217.661 45.039,217.700 45.642 C 217.742 46.293,217.808 46.425,218.115 46.469 C 218.342 46.501,218.499 46.658,218.531 46.885 C 218.564 47.116,218.721 47.270,218.958 47.303 C 219.199 47.337,219.333 47.471,219.333 47.678 C 219.333 47.910,219.449 48.000,219.750 48.000 C 220.083 48.000,220.167 48.083,220.167 48.417 C 220.167 48.751,220.250 48.833,220.587 48.833 C 220.883 48.833,221.055 48.957,221.167 49.250 C 221.299 49.598,221.434 49.667,221.984 49.667 C 222.541 49.667,222.652 49.725,222.697 50.042 C 222.746 50.386,222.850 50.421,223.958 50.466 C 225.117 50.513,225.167 50.531,225.167 50.924 C 225.167 51.304,225.226 51.333,226.000 51.333 C 226.778 51.333,226.833 51.361,226.833 51.750 C 226.833 52.138,226.890 52.167,227.648 52.167 C 228.519 52.167,228.684 52.409,228.531 53.458 C 228.441 54.077,224.480 54.039,224.197 53.417 C 224.015 53.017,223.946 53.000,222.504 53.000 C 221.139 53.000,221.000 52.971,221.000 52.684 C 221.000 52.274,220.688 52.167,219.486 52.167 C 218.611 52.167,218.500 52.129,218.500 51.833 C 218.500 51.549,218.389 51.500,217.750 51.500 L 217.000 51.500 217.000 55.917 C 217.000 60.138,217.014 60.333,217.315 60.333 C 217.513 60.333,217.670 60.489,217.735 60.750 C 217.837 61.157,217.875 61.167,219.402 61.167 C 220.929 61.167,220.966 61.176,221.068 61.583 L 221.173 62.000 226.420 62.000 L 231.667 62.000 231.667 61.583 C 231.667 61.176,231.694 61.167,232.917 61.167 C 234.139 61.167,234.167 61.157,234.167 60.750 C 234.167 60.361,234.222 60.333,235.000 60.333 C 235.712 60.333,235.833 60.287,235.833 60.012 C 235.833 59.805,235.967 59.671,236.208 59.637 C 236.446 59.603,236.602 59.449,236.635 59.219 C 236.668 58.991,236.825 58.834,237.052 58.802 C 237.279 58.770,237.436 58.612,237.469 58.385 C 237.501 58.158,237.658 58.001,237.885 57.969 C 238.191 57.925,238.258 57.793,238.300 57.148 C 238.341 56.517,238.424 56.346,238.762 56.192 L 239.173 56.004 239.128 52.544 C 239.084 49.098,239.082 49.083,238.708 49.030 C 238.377 48.983,238.333 48.880,238.333 48.155 C 238.333 47.405,238.299 47.333,237.945 47.333 C 237.613 47.333,237.533 47.216,237.403 46.542 C 237.251 45.757,237.244 45.750,236.542 45.699 C 235.916 45.653,235.833 45.600,235.833 45.240 C 235.833 44.920,235.747 44.833,235.428 44.833 C 235.135 44.833,235.008 44.730,234.970 44.458 C 234.924 44.138,234.801 44.076,234.125 44.033 C 233.486 43.992,233.333 43.923,233.333 43.675 C 233.333 43.274,233.015 43.167,231.820 43.167 C 230.879 43.167,230.833 43.148,230.833 42.750 C 230.833 42.362,230.777 42.333,230.012 42.333 C 229.286 42.333,229.184 42.289,229.137 41.958 C 229.091 41.638,228.967 41.576,228.292 41.533 C 227.577 41.487,227.500 41.442,227.500 41.074 L 227.500 40.667 229.565 40.667 C 231.629 40.667,231.631 40.667,231.735 41.083 C 231.834 41.477,231.902 41.500,232.992 41.500 C 234.059 41.500,234.147 41.527,234.197 41.875 C 234.246 42.223,234.334 42.250,235.417 42.250 L 236.583 42.250 236.634 41.469 C 236.676 40.810,236.741 40.679,237.050 40.635 C 237.360 40.591,237.425 40.461,237.467 39.792 C 237.504 39.229,237.589 39.000,237.763 39.000 C 238.099 39.000,238.333 38.309,238.333 37.322 C 238.333 36.614,238.379 36.500,238.663 36.500 C 238.874 36.500,239.030 36.353,239.095 36.095 C 239.237 35.529,239.034 35.000,238.674 35.000 C 238.488 35.000,238.329 34.837,238.265 34.583 C 238.166 34.189,238.098 34.167,237.008 34.167 C 235.941 34.167,235.853 34.139,235.803 33.792 C 235.753 33.436,235.667 33.414,234.125 33.369 C 232.522 33.322,232.500 33.316,232.500 32.911 L 232.500 32.500 228.528 32.500 C 226.343 32.500,224.506 32.550,224.444 32.611 M284.708 32.610 C 284.594 32.657,284.500 32.834,284.500 33.005 C 284.500 33.257,284.351 33.325,283.708 33.366 C 283.033 33.409,282.909 33.472,282.863 33.792 C 282.825 34.063,282.698 34.167,282.405 34.167 C 282.084 34.167,282.000 34.253,282.000 34.583 C 282.000 34.917,281.917 35.000,281.583 35.000 C 281.250 35.000,281.167 35.083,281.167 35.417 C 281.167 35.747,281.083 35.833,280.761 35.833 C 280.447 35.833,280.340 35.936,280.286 36.292 L 280.217 36.750 280.192 36.292 C 280.173 35.953,280.080 35.833,279.833 35.833 C 279.538 35.833,279.500 35.722,279.500 34.847 C 279.500 33.205,279.891 33.333,274.899 33.333 L 270.500 33.333 270.500 47.250 L 270.500 61.167 275.750 61.167 L 281.000 61.167 281.000 53.845 L 281.000 46.523 281.375 46.470 C 281.694 46.425,281.758 46.300,281.800 45.641 C 281.843 44.976,281.909 44.851,282.258 44.763 C 282.520 44.697,282.667 44.541,282.667 44.330 C 282.667 44.089,282.779 44.000,283.083 44.000 C 283.416 44.000,283.500 43.916,283.500 43.587 L 283.500 43.174 286.792 43.129 L 290.083 43.083 290.129 40.625 C 290.172 38.353,290.199 38.167,290.487 38.167 C 290.946 38.167,291.000 37.867,291.000 35.333 C 291.000 34.065,290.954 32.909,290.899 32.764 C 290.799 32.504,285.308 32.368,284.708 32.610 M301.114 32.609 C 301.051 32.671,301.000 32.860,301.000 33.028 C 301.000 33.304,300.838 33.333,299.337 33.333 C 297.709 33.333,297.671 33.342,297.570 33.743 C 297.476 34.119,297.379 34.156,296.359 34.201 C 295.353 34.245,295.245 34.285,295.197 34.625 C 295.158 34.896,295.032 35.000,294.738 35.000 C 294.348 35.000,294.333 35.042,294.333 36.167 C 294.333 37.300,294.345 37.333,294.750 37.333 C 295.139 37.333,295.167 37.389,295.167 38.167 C 295.167 38.940,295.196 39.000,295.576 39.000 C 295.969 39.000,295.987 39.050,296.034 40.208 C 296.079 41.317,296.114 41.421,296.458 41.470 C 296.732 41.509,296.833 41.635,296.833 41.935 C 296.833 42.544,299.882 42.493,299.969 41.882 C 300.017 41.547,300.128 41.510,301.219 41.465 C 302.317 41.421,302.421 41.385,302.470 41.042 C 302.522 40.676,302.574 40.667,304.585 40.667 L 306.648 40.667 306.699 41.375 C 306.738 41.922,306.835 42.121,307.125 42.248 C 307.354 42.348,307.500 42.558,307.500 42.787 L 307.500 43.161 303.375 43.205 L 299.250 43.250 299.197 43.625 C 299.147 43.973,299.059 44.000,297.988 44.000 C 296.867 44.000,296.833 44.012,296.833 44.417 C 296.833 44.806,296.778 44.833,296.000 44.833 C 295.227 44.833,295.167 44.863,295.167 45.240 C 295.167 45.600,295.084 45.653,294.458 45.699 C 293.917 45.738,293.712 45.836,293.589 46.116 C 293.501 46.317,293.257 46.525,293.048 46.577 C 292.723 46.659,292.667 46.781,292.667 47.408 C 292.667 48.044,292.616 48.151,292.292 48.197 L 291.917 48.250 291.917 52.667 L 291.917 57.083 292.283 57.135 C 292.592 57.179,292.657 57.310,292.700 57.969 C 292.742 58.634,292.806 58.758,293.125 58.803 C 293.396 58.842,293.500 58.968,293.500 59.262 C 293.500 59.583,293.587 59.667,293.917 59.667 C 294.222 59.667,294.333 59.756,294.333 60.000 C 294.333 60.244,294.444 60.333,294.750 60.333 C 295.083 60.333,295.167 60.417,295.167 60.750 C 295.167 61.139,295.222 61.167,296.000 61.167 C 296.779 61.167,296.833 61.194,296.833 61.587 L 296.833 62.007 300.458 61.962 C 304.054 61.917,304.084 61.914,304.136 61.549 C 304.183 61.214,304.295 61.176,305.386 61.132 C 306.483 61.087,306.588 61.052,306.637 60.708 C 306.671 60.467,306.805 60.333,307.012 60.333 C 307.222 60.333,307.333 60.218,307.333 60.000 C 307.333 59.756,307.444 59.667,307.750 59.667 C 308.083 59.667,308.167 59.583,308.167 59.250 C 308.167 58.402,309.136 58.676,309.199 59.542 C 309.241 60.131,309.313 60.259,309.625 60.303 C 309.896 60.342,310.000 60.468,310.000 60.762 L 310.000 61.167 314.085 61.167 L 318.169 61.167 318.126 50.625 L 318.083 40.083 317.715 39.922 C 317.398 39.782,317.340 39.610,317.298 38.672 C 317.255 37.687,317.214 37.578,316.875 37.530 C 316.607 37.492,316.500 37.365,316.500 37.083 C 316.500 36.508,316.208 35.833,315.960 35.833 C 315.842 35.833,315.672 35.665,315.581 35.458 C 315.454 35.169,315.255 35.072,314.708 35.032 C 314.082 34.987,314.000 34.934,314.000 34.574 C 314.000 34.254,313.913 34.167,313.595 34.167 C 313.302 34.167,313.175 34.063,313.137 33.792 C 313.088 33.448,312.983 33.413,311.886 33.368 C 310.795 33.324,310.683 33.286,310.636 32.951 L 310.583 32.583 305.905 32.539 C 303.332 32.515,301.176 32.546,301.114 32.609 M332.167 32.908 C 332.167 33.316,332.148 33.322,330.542 33.369 C 329.000 33.414,328.914 33.436,328.863 33.792 C 328.817 34.116,328.710 34.167,328.075 34.167 C 327.434 34.167,327.327 34.219,327.238 34.574 C 327.175 34.822,326.995 35.001,326.776 35.032 C 326.551 35.064,326.397 35.223,326.363 35.458 C 326.325 35.730,326.198 35.833,325.905 35.833 C 325.584 35.833,325.500 35.920,325.500 36.250 C 325.500 36.583,325.417 36.667,325.083 36.667 C 324.750 36.667,324.667 36.750,324.667 37.083 C 324.667 37.389,324.578 37.500,324.333 37.500 C 324.089 37.500,324.000 37.611,324.000 37.917 C 324.000 38.250,323.917 38.333,323.583 38.333 C 323.202 38.333,323.167 38.396,323.167 39.065 C 323.167 39.707,323.115 39.810,322.750 39.902 C 322.342 40.004,322.333 40.041,322.333 41.575 C 322.333 43.075,322.317 43.146,321.958 43.197 L 321.583 43.250 321.539 47.708 L 321.495 52.167 321.914 52.167 C 322.325 52.167,322.333 52.192,322.333 53.417 C 322.333 54.639,322.343 54.667,322.750 54.667 C 323.139 54.667,323.167 54.722,323.167 55.500 C 323.167 56.278,323.194 56.333,323.583 56.333 C 323.967 56.333,324.000 56.393,324.000 57.099 C 324.000 57.712,324.063 57.881,324.318 57.948 C 324.493 57.993,324.675 58.179,324.722 58.361 C 324.770 58.543,324.948 58.728,325.119 58.773 C 325.290 58.817,325.502 59.018,325.590 59.219 C 325.678 59.419,325.919 59.607,326.125 59.637 C 326.366 59.671,326.500 59.805,326.500 60.012 C 326.500 60.281,326.620 60.333,327.232 60.333 C 327.874 60.333,327.977 60.385,328.068 60.750 C 328.167 61.143,328.237 61.167,329.297 61.167 C 330.303 61.167,330.438 61.206,330.585 61.542 C 330.749 61.915,330.768 61.917,335.125 61.961 L 339.500 62.006 339.500 61.586 C 339.500 61.175,339.526 61.167,340.750 61.167 C 341.972 61.167,342.000 61.157,342.000 60.750 C 342.000 60.361,342.056 60.333,342.833 60.333 C 343.546 60.333,343.667 60.287,343.667 60.012 C 343.667 59.805,343.801 59.671,344.042 59.637 L 344.417 59.583 344.464 55.500 C 344.521 50.519,344.541 50.632,343.619 50.699 C 343.036 50.741,342.908 50.814,342.863 51.125 C 342.817 51.448,342.710 51.500,342.083 51.500 C 341.509 51.500,341.334 51.568,341.253 51.825 C 341.173 52.075,340.970 52.161,340.367 52.200 C 339.700 52.243,339.575 52.306,339.530 52.625 C 339.478 52.995,339.442 53.000,337.000 53.000 C 334.558 53.000,334.522 52.995,334.470 52.625 C 334.436 52.384,334.283 52.231,334.042 52.197 C 333.801 52.163,333.667 52.029,333.667 51.822 C 333.667 51.611,333.552 51.500,333.333 51.500 C 333.065 51.500,333.000 51.389,333.000 50.930 C 333.000 50.145,332.853 49.833,332.482 49.833 C 331.946 49.833,332.003 44.984,332.542 44.748 C 332.831 44.621,332.928 44.422,332.968 43.875 C 333.009 43.302,333.081 43.167,333.343 43.167 C 333.577 43.167,333.667 43.051,333.667 42.750 C 333.667 42.417,333.750 42.333,334.083 42.333 C 334.417 42.333,334.500 42.250,334.500 41.917 L 334.500 41.500 336.565 41.500 C 338.629 41.500,338.631 41.500,338.735 41.917 C 338.834 42.311,338.902 42.333,339.985 42.333 C 341.068 42.333,341.136 42.356,341.235 42.750 C 341.324 43.105,341.436 43.167,341.985 43.167 C 342.699 43.167,342.833 42.994,342.833 42.081 C 342.833 41.629,342.905 41.513,343.208 41.470 C 343.528 41.424,343.591 41.301,343.634 40.625 C 343.675 39.986,343.744 39.833,343.991 39.833 C 344.392 39.833,344.500 39.515,344.500 38.331 C 344.500 37.447,344.535 37.352,344.875 37.303 C 345.217 37.255,345.254 37.148,345.300 36.087 C 345.378 34.292,345.315 34.167,344.342 34.167 C 343.620 34.167,343.517 34.122,343.470 33.792 C 343.420 33.438,343.330 33.414,341.886 33.369 C 340.450 33.324,340.352 33.298,340.302 32.952 C 340.250 32.584,340.237 32.583,336.208 32.539 L 332.167 32.494 332.167 32.908 M394.111 32.611 C 394.050 32.672,394.000 32.860,394.000 33.028 C 394.000 33.283,393.864 33.333,393.170 33.333 C 392.429 33.333,392.329 33.377,392.238 33.740 C 392.175 33.988,391.995 34.168,391.776 34.199 C 391.551 34.231,391.397 34.390,391.363 34.625 C 391.329 34.866,391.195 35.000,390.988 35.000 C 390.756 35.000,390.667 35.116,390.667 35.417 C 390.667 35.747,390.583 35.833,390.261 35.833 C 389.947 35.833,389.840 35.936,389.786 36.292 L 389.717 36.750 389.692 36.292 C 389.671 35.921,389.587 35.833,389.250 35.833 C 388.843 35.833,388.833 35.806,388.833 34.581 L 388.833 33.328 384.375 33.372 L 379.917 33.417 379.917 47.250 L 379.917 61.083 385.208 61.127 L 390.500 61.171 390.500 53.847 L 390.500 46.523 390.875 46.470 C 391.194 46.425,391.258 46.300,391.300 45.641 C 391.343 44.976,391.409 44.851,391.758 44.763 C 392.014 44.699,392.167 44.541,392.167 44.342 C 392.167 44.138,392.302 44.004,392.542 43.970 C 392.781 43.936,392.936 43.783,392.969 43.545 C 393.022 43.177,393.052 43.173,396.303 43.128 L 399.583 43.083 399.629 40.625 C 399.657 39.174,399.742 38.167,399.838 38.167 C 399.937 38.167,400.000 37.059,400.000 35.333 L 400.000 32.500 397.111 32.500 C 395.522 32.500,394.172 32.550,394.111 32.611 M170.944 33.444 C 170.624 33.765,170.838 34.828,171.244 34.930 C 171.638 35.029,171.656 35.094,171.702 36.558 C 171.747 37.988,171.773 38.087,172.119 38.136 C 172.465 38.185,172.491 38.283,172.536 39.719 C 172.579 41.124,172.614 41.264,172.958 41.415 C 173.298 41.563,173.333 41.694,173.333 42.790 C 173.333 43.965,173.345 44.000,173.744 44.000 C 174.149 44.000,174.155 44.022,174.202 45.625 C 174.248 47.167,174.269 47.253,174.625 47.303 C 174.984 47.354,175.000 47.425,175.000 48.928 C 175.000 50.487,175.003 50.500,175.410 50.500 C 175.813 50.500,175.822 50.528,175.869 52.042 C 175.913 53.458,175.947 53.597,176.292 53.748 C 176.631 53.897,176.667 54.027,176.667 55.123 C 176.667 56.303,176.677 56.333,177.083 56.333 C 177.499 56.333,177.500 56.338,177.500 57.932 C 177.500 59.391,177.529 59.539,177.833 59.618 C 178.103 59.689,178.167 59.846,178.167 60.436 L 178.167 61.167 183.917 61.167 L 189.667 61.167 189.667 59.601 C 189.667 58.071,189.676 58.034,190.083 57.932 C 190.490 57.829,190.500 57.791,190.500 56.286 C 190.500 54.849,190.525 54.735,190.875 54.581 C 191.229 54.426,191.253 54.307,191.297 52.458 L 191.344 50.500 191.755 50.500 L 192.167 50.500 192.167 48.519 C 192.167 46.539,192.167 46.539,192.583 46.459 C 192.989 46.382,193.000 46.405,193.000 47.343 C 193.000 48.517,193.109 48.833,193.512 48.833 C 193.789 48.833,193.826 49.003,193.869 50.458 C 193.914 52.000,193.936 52.086,194.292 52.137 C 194.648 52.187,194.667 52.262,194.667 53.657 C 194.667 55.585,194.787 56.167,195.188 56.167 C 195.472 56.167,195.500 56.315,195.500 57.830 C 195.500 59.466,195.507 59.495,195.917 59.598 C 196.282 59.690,196.333 59.793,196.333 60.435 L 196.333 61.167 202.083 61.167 L 207.833 61.167 207.833 60.018 C 207.833 58.932,207.856 58.864,208.250 58.765 C 208.658 58.663,208.667 58.626,208.667 57.092 C 208.667 55.592,208.683 55.521,209.042 55.470 C 209.385 55.421,209.421 55.317,209.465 54.226 C 209.505 53.242,209.566 53.022,209.815 52.957 C 210.177 52.862,210.333 52.190,210.333 50.729 C 210.333 49.798,210.372 49.667,210.649 49.667 C 211.078 49.667,211.167 49.356,211.167 47.859 C 211.167 46.691,211.200 46.565,211.542 46.415 C 211.869 46.271,211.923 46.107,211.966 45.134 C 212.006 44.223,212.071 44.000,212.321 43.921 C 212.686 43.805,212.833 43.176,212.833 41.729 C 212.833 40.778,212.868 40.667,213.167 40.667 C 213.478 40.667,213.500 40.556,213.500 39.000 L 213.500 37.333 213.917 37.333 L 214.333 37.333 214.333 35.333 L 214.333 33.333 209.417 33.333 L 204.500 33.333 204.500 34.167 C 204.500 34.889,204.456 35.000,204.167 35.000 C 203.851 35.000,203.833 35.111,203.833 37.083 L 203.833 39.167 203.417 39.167 C 203.002 39.167,203.000 39.173,203.000 40.732 C 203.000 42.263,202.991 42.300,202.583 42.402 C 202.168 42.506,202.167 42.513,202.167 44.492 C 202.167 46.412,202.155 46.479,201.798 46.530 C 201.572 46.563,201.386 46.744,201.315 47.000 C 201.252 47.229,201.192 46.499,201.183 45.378 C 201.167 43.349,201.165 43.339,200.750 43.235 C 200.335 43.131,200.333 43.124,200.333 41.149 C 200.333 39.278,200.315 39.167,200.000 39.167 C 199.692 39.167,199.667 39.056,199.667 37.688 C 199.667 35.815,199.545 35.203,199.147 35.077 C 198.896 34.997,198.833 34.814,198.833 34.155 L 198.833 33.333 193.083 33.333 L 187.333 33.333 187.333 34.167 C 187.333 34.944,187.306 35.000,186.917 35.000 L 186.500 35.000 186.500 36.667 C 186.500 38.191,186.473 38.333,186.184 38.333 C 185.737 38.333,185.667 38.638,185.667 40.585 C 185.667 42.247,185.653 42.312,185.292 42.363 C 184.929 42.415,184.915 42.484,184.870 44.458 C 184.823 46.497,184.822 46.500,184.418 46.500 C 184.021 46.500,184.011 46.467,183.965 44.958 C 183.921 43.542,183.886 43.403,183.542 43.252 C 183.188 43.097,183.167 42.991,183.167 41.391 C 183.167 39.476,183.095 39.167,182.654 39.167 C 182.371 39.167,182.340 38.988,182.297 37.125 C 182.252 35.151,182.238 35.082,181.875 35.030 C 181.544 34.983,181.500 34.880,181.500 34.155 L 181.500 33.333 176.278 33.333 C 173.406 33.333,171.006 33.383,170.944 33.444 M158.530 41.042 C 158.564 41.283,158.717 41.436,158.958 41.470 C 159.230 41.508,159.333 41.635,159.333 41.928 C 159.333 42.249,159.420 42.333,159.750 42.333 C 160.083 42.333,160.167 42.417,160.167 42.750 L 160.167 43.167 157.208 43.167 L 154.250 43.167 154.308 42.333 C 154.360 41.580,154.404 41.500,154.766 41.500 C 155.082 41.500,155.167 41.412,155.167 41.083 C 155.167 40.461,158.442 40.420,158.530 41.042 M307.500 50.917 C 307.500 52.139,307.491 52.167,307.083 52.167 C 306.750 52.167,306.667 52.250,306.667 52.583 C 306.667 52.917,306.583 53.000,306.250 53.000 C 305.917 53.000,305.833 53.083,305.833 53.417 C 305.833 53.826,305.811 53.833,304.500 53.833 C 303.278 53.833,303.167 53.806,303.167 53.500 C 303.167 53.278,303.056 53.167,302.833 53.167 C 302.540 53.167,302.500 53.056,302.500 52.250 C 302.500 51.540,302.557 51.333,302.754 51.333 C 302.894 51.333,303.080 51.146,303.167 50.917 C 303.263 50.663,303.456 50.500,303.659 50.500 C 303.877 50.500,304.030 50.355,304.098 50.083 C 304.201 49.674,304.232 49.667,305.851 49.667 L 307.500 49.667 307.500 50.917 " stroke="none" fill="#fcfcfc" fill-rule="evenodd"></path><path id="path1" d="M4.667 0.250 C 4.667 0.404,4.511 0.500,4.262 0.500 C 3.968 0.500,3.842 0.604,3.803 0.875 C 3.761 1.175,3.617 1.267,3.083 1.333 C 2.618 1.392,2.371 1.521,2.264 1.764 C 2.180 1.955,1.955 2.180,1.764 2.264 C 1.520 2.371,1.402 2.599,1.366 3.031 C 1.325 3.518,1.238 3.657,0.949 3.698 C 0.690 3.735,0.568 3.884,0.531 4.208 C 0.500 4.471,0.376 4.667,0.239 4.667 C 0.037 4.667,0.000 5.414,0.000 9.500 C 0.000 13.685,0.034 14.333,0.250 14.333 C 0.418 14.333,0.500 14.501,0.500 14.841 C 0.500 15.162,0.646 15.485,0.897 15.717 C 1.115 15.919,1.322 16.234,1.357 16.417 C 1.393 16.606,1.577 16.773,1.783 16.802 C 2.009 16.834,2.166 16.992,2.198 17.219 C 2.229 17.436,2.387 17.603,2.588 17.632 C 2.775 17.658,3.000 17.846,3.088 18.048 C 3.205 18.314,3.420 18.431,3.859 18.467 C 4.346 18.508,4.489 18.600,4.571 18.926 C 4.667 19.308,4.743 19.333,5.810 19.333 C 6.861 19.333,6.961 19.365,7.136 19.750 C 7.473 20.489,11.833 20.328,11.833 19.577 C 11.833 19.392,12.057 19.333,12.761 19.333 C 13.774 19.333,14.333 19.124,14.333 18.744 C 14.333 18.595,14.495 18.500,14.750 18.500 C 15.083 18.500,15.167 18.417,15.167 18.083 C 15.167 17.777,15.255 17.667,15.501 17.667 C 15.983 17.667,16.833 16.851,16.833 16.389 C 16.833 16.085,16.925 16.000,17.250 16.000 C 17.580 16.000,17.667 15.916,17.667 15.595 C 17.667 15.302,17.770 15.175,18.042 15.137 C 18.358 15.092,18.425 14.966,18.467 14.333 C 18.503 13.797,18.622 13.503,18.884 13.301 C 19.465 12.854,19.457 6.279,18.875 6.197 C 18.552 6.151,18.500 6.044,18.500 5.416 C 18.500 4.507,18.253 3.833,17.921 3.833 C 17.761 3.833,17.667 3.679,17.667 3.417 C 17.667 3.083,17.583 3.000,17.250 3.000 C 16.917 3.000,16.833 2.917,16.833 2.583 C 16.833 2.250,16.750 2.167,16.417 2.167 C 16.083 2.167,16.000 2.083,16.000 1.750 C 16.000 1.417,15.917 1.333,15.583 1.333 C 15.250 1.333,15.167 1.250,15.167 0.917 C 15.167 0.528,15.111 0.500,14.333 0.500 C 13.704 0.500,13.500 0.439,13.500 0.250 C 13.500 0.034,12.898 0.000,9.083 0.000 C 5.269 0.000,4.667 0.034,4.667 0.250 M72.000 0.250 C 72.000 0.435,71.806 0.500,71.250 0.500 C 70.561 0.500,70.500 0.534,70.500 0.917 C 70.500 1.250,70.417 1.333,70.083 1.333 C 69.750 1.333,69.667 1.417,69.667 1.750 C 69.667 2.083,69.583 2.167,69.250 2.167 C 68.917 2.167,68.833 2.250,68.833 2.583 C 68.833 2.917,68.750 3.000,68.417 3.000 C 68.123 3.000,68.000 3.091,68.000 3.307 C 68.000 3.475,67.813 3.699,67.583 3.803 C 67.219 3.969,67.167 4.099,67.167 4.830 C 67.167 5.290,67.110 5.658,67.042 5.647 C 66.709 5.594,66.491 5.683,66.583 5.833 C 66.640 5.925,66.605 6.000,66.507 6.000 C 66.085 6.000,66.368 13.410,66.792 13.470 C 67.123 13.517,67.167 13.620,67.167 14.345 C 67.167 15.110,67.195 15.167,67.583 15.167 C 67.910 15.167,68.000 15.252,68.000 15.561 C 68.000 15.777,68.176 16.134,68.392 16.352 C 68.608 16.571,68.873 16.918,68.981 17.124 C 69.114 17.377,69.391 17.532,69.839 17.604 C 70.394 17.692,70.500 17.773,70.500 18.105 C 70.500 18.415,70.589 18.500,70.917 18.500 C 71.214 18.500,71.333 18.590,71.333 18.816 C 71.333 19.226,71.646 19.333,72.847 19.333 C 73.704 19.333,73.833 19.375,73.833 19.649 C 73.833 20.363,78.228 20.466,78.497 19.758 C 78.638 19.387,78.758 19.344,79.785 19.299 C 80.814 19.254,80.921 19.216,80.970 18.875 C 81.006 18.618,81.137 18.499,81.387 18.498 C 82.036 18.494,82.487 18.304,82.586 17.993 C 82.639 17.825,82.848 17.664,83.050 17.636 C 83.277 17.603,83.436 17.447,83.468 17.224 C 83.499 17.005,83.678 16.825,83.926 16.762 C 84.241 16.683,84.333 16.551,84.333 16.176 C 84.333 15.857,84.476 15.578,84.750 15.363 C 84.979 15.183,85.167 14.881,85.167 14.692 C 85.167 14.503,85.356 14.160,85.586 13.929 L 86.006 13.509 85.961 9.463 C 85.917 5.438,85.915 5.416,85.550 5.365 C 85.241 5.321,85.176 5.190,85.134 4.531 C 85.091 3.866,85.027 3.742,84.708 3.697 C 84.438 3.658,84.333 3.531,84.333 3.243 C 84.333 2.639,82.963 1.333,82.329 1.333 C 81.911 1.333,81.833 1.268,81.833 0.917 C 81.833 0.583,81.750 0.500,81.417 0.500 C 81.157 0.500,81.000 0.406,81.000 0.250 C 81.000 0.034,80.389 0.000,76.500 0.000 C 72.611 0.000,72.000 0.034,72.000 0.250 M5.875 31.839 C 5.669 31.921,5.500 32.100,5.500 32.235 C 5.500 32.411,5.273 32.496,4.708 32.533 C 4.033 32.576,3.909 32.638,3.863 32.958 C 3.825 33.230,3.698 33.333,3.405 33.333 C 3.084 33.333,3.000 33.420,3.000 33.750 C 3.000 34.083,2.917 34.167,2.583 34.167 C 2.250 34.167,2.167 34.250,2.167 34.583 C 2.167 34.917,2.083 35.000,1.750 35.000 C 1.417 35.000,1.333 35.083,1.333 35.417 C 1.333 35.750,1.250 35.833,0.917 35.833 C 0.528 35.833,0.500 35.889,0.500 36.667 C 0.500 37.296,0.439 37.500,0.250 37.500 C 0.034 37.500,0.000 38.111,0.000 42.000 C 0.000 45.889,0.034 46.500,0.250 46.500 C 0.435 46.500,0.500 46.694,0.500 47.250 C 0.500 47.939,0.534 48.000,0.917 48.000 C 1.250 48.000,1.333 48.083,1.333 48.417 C 1.333 48.750,1.417 48.833,1.750 48.833 C 2.083 48.833,2.167 48.917,2.167 49.250 C 2.167 49.583,2.250 49.667,2.583 49.667 C 2.917 49.667,3.000 49.750,3.000 50.083 C 3.000 50.413,3.084 50.500,3.405 50.500 C 3.698 50.500,3.825 50.604,3.863 50.875 C 3.908 51.192,4.034 51.258,4.672 51.299 C 5.264 51.338,5.462 51.428,5.589 51.716 C 5.747 52.075,5.824 52.084,9.204 52.128 L 12.659 52.173 12.764 51.753 C 12.856 51.385,12.959 51.333,13.590 51.333 C 14.210 51.333,14.318 51.281,14.363 50.958 C 14.407 50.648,14.546 50.569,15.167 50.500 C 15.787 50.431,15.926 50.352,15.970 50.042 C 16.008 49.770,16.135 49.667,16.428 49.667 C 16.746 49.667,16.833 49.579,16.833 49.262 C 16.833 48.968,16.937 48.842,17.208 48.803 C 17.519 48.759,17.592 48.630,17.634 48.052 C 17.676 47.479,17.751 47.345,18.051 47.302 C 18.361 47.258,18.424 47.128,18.468 46.451 C 18.511 45.778,18.584 45.627,18.930 45.495 L 19.340 45.339 19.295 41.878 C 19.250 38.431,19.248 38.416,18.875 38.363 C 18.544 38.316,18.500 38.214,18.500 37.488 C 18.500 36.723,18.471 36.667,18.083 36.667 C 17.701 36.667,17.667 36.605,17.667 35.920 C 17.667 35.267,17.615 35.160,17.260 35.071 C 17.012 35.009,16.832 34.828,16.801 34.609 C 16.770 34.387,16.611 34.230,16.385 34.198 C 16.158 34.166,16.001 34.009,15.969 33.781 C 15.925 33.473,15.793 33.409,15.125 33.366 C 14.410 33.320,14.333 33.275,14.333 32.908 C 14.333 32.537,14.267 32.500,13.601 32.500 C 12.960 32.500,12.857 32.449,12.765 32.083 L 12.660 31.667 9.455 31.677 C 7.692 31.683,6.081 31.756,5.875 31.839 M39.281 31.774 C 39.218 31.837,39.167 32.022,39.167 32.185 C 39.167 32.421,39.004 32.492,38.375 32.533 C 37.699 32.576,37.576 32.638,37.530 32.958 C 37.496 33.196,37.362 33.333,37.163 33.333 C 36.681 33.333,36.000 33.693,36.000 33.948 C 36.000 34.073,35.823 34.242,35.606 34.325 C 35.176 34.488,35.000 34.809,35.000 35.430 C 35.000 35.749,34.913 35.833,34.583 35.833 C 34.250 35.833,34.167 35.917,34.167 36.250 C 34.167 36.512,34.072 36.667,33.913 36.667 C 33.569 36.667,33.333 37.349,33.333 38.344 C 33.333 39.039,33.284 39.167,33.019 39.167 C 32.579 39.167,32.505 39.591,32.502 42.113 C 32.500 44.303,32.632 44.833,33.179 44.833 C 33.264 44.833,33.333 45.124,33.333 45.479 C 33.333 46.595,33.510 47.167,33.854 47.167 C 34.076 47.167,34.167 47.287,34.167 47.583 C 34.167 47.917,34.250 48.000,34.583 48.000 C 34.904 48.000,35.001 48.087,35.002 48.375 C 35.007 49.093,35.208 49.504,35.603 49.603 C 35.821 49.658,36.000 49.805,36.000 49.929 C 36.000 50.220,36.526 50.500,37.072 50.500 C 37.417 50.500,37.500 50.580,37.500 50.917 C 37.500 51.305,37.556 51.333,38.322 51.333 C 39.047 51.333,39.150 51.377,39.197 51.708 C 39.250 52.082,39.261 52.083,42.788 52.128 L 46.325 52.173 46.429 51.762 C 46.517 51.408,46.641 51.343,47.308 51.300 C 47.967 51.258,48.091 51.194,48.137 50.875 C 48.171 50.629,48.304 50.500,48.522 50.500 C 48.705 50.500,49.081 50.294,49.357 50.042 C 49.633 49.790,50.041 49.418,50.263 49.216 C 50.488 49.011,50.667 48.661,50.667 48.424 C 50.667 48.083,50.748 48.000,51.083 48.000 C 51.395 48.000,51.500 47.912,51.500 47.652 C 51.500 47.460,51.662 47.172,51.859 47.012 C 52.142 46.784,52.240 46.474,52.318 45.569 C 52.375 44.906,52.487 44.444,52.583 44.481 C 53.274 44.749,53.414 39.905,52.732 39.353 C 52.470 39.141,52.360 38.820,52.300 38.096 C 52.240 37.375,52.130 37.054,51.875 36.854 C 51.685 36.705,51.504 36.433,51.472 36.250 C 51.438 36.055,51.258 35.895,51.040 35.863 C 50.778 35.826,50.667 35.697,50.667 35.429 C 50.667 35.220,50.485 34.869,50.263 34.649 C 49.257 33.655,48.831 33.333,48.522 33.333 C 48.304 33.333,48.171 33.204,48.137 32.958 C 48.092 32.641,47.966 32.576,47.328 32.534 C 46.736 32.495,46.538 32.405,46.411 32.117 C 46.249 31.747,39.627 31.429,39.281 31.774 M72.902 32.083 C 72.810 32.451,72.708 32.500,72.048 32.500 C 71.452 32.500,71.232 32.583,70.979 32.906 C 70.803 33.129,70.455 33.335,70.205 33.364 C 69.880 33.402,69.735 33.524,69.697 33.792 C 69.658 34.063,69.532 34.167,69.238 34.167 C 68.921 34.167,68.833 34.254,68.833 34.572 C 68.833 34.865,68.730 34.992,68.458 35.030 C 68.148 35.074,68.069 35.213,68.000 35.833 C 67.931 36.454,67.852 36.593,67.542 36.637 C 67.211 36.684,67.167 36.786,67.167 37.512 C 67.167 38.277,67.138 38.333,66.750 38.333 L 66.333 38.333 66.333 41.913 L 66.333 45.494 66.750 45.598 C 67.123 45.692,67.167 45.787,67.167 46.518 C 67.167 47.277,67.196 47.333,67.583 47.333 C 67.966 47.333,68.000 47.394,68.000 48.083 C 68.000 48.772,68.034 48.833,68.417 48.833 C 68.750 48.833,68.833 48.917,68.833 49.250 C 68.833 49.583,68.917 49.667,69.250 49.667 C 69.583 49.667,69.667 49.750,69.667 50.083 C 69.667 50.419,69.749 50.500,70.091 50.500 C 70.330 50.500,70.685 50.682,70.902 50.917 C 71.205 51.244,71.452 51.333,72.049 51.333 C 72.711 51.333,72.817 51.382,72.863 51.708 C 72.916 52.081,72.937 52.084,76.213 52.129 L 79.509 52.174 79.899 51.754 C 80.194 51.436,80.455 51.333,80.974 51.333 C 81.567 51.333,81.675 51.277,81.765 50.917 C 81.840 50.618,81.982 50.500,82.268 50.500 C 82.582 50.500,82.667 50.412,82.667 50.083 C 82.667 49.750,82.750 49.667,83.083 49.667 C 83.417 49.667,83.500 49.583,83.500 49.250 C 83.500 48.917,83.583 48.833,83.917 48.833 C 84.247 48.833,84.333 48.749,84.333 48.428 C 84.333 48.135,84.437 48.008,84.708 47.970 C 85.021 47.926,85.092 47.797,85.135 47.200 C 85.177 46.619,85.263 46.455,85.593 46.330 L 86.000 46.175 86.000 42.101 C 86.000 37.756,85.971 37.500,85.482 37.500 C 85.234 37.500,85.167 37.378,85.167 36.930 C 85.167 36.145,85.020 35.833,84.649 35.833 C 84.423 35.833,84.333 35.714,84.333 35.417 C 84.333 35.083,84.250 35.000,83.917 35.000 C 83.583 35.000,83.500 34.917,83.500 34.583 C 83.500 34.250,83.417 34.167,83.083 34.167 C 82.750 34.167,82.667 34.083,82.667 33.750 C 82.667 33.428,82.581 33.333,82.290 33.333 C 82.058 33.333,81.849 33.188,81.748 32.958 C 81.625 32.677,81.418 32.570,80.923 32.530 C 80.499 32.495,80.119 32.331,79.859 32.071 C 79.459 31.671,79.421 31.667,76.230 31.667 L 73.006 31.667 72.902 32.083 M7.405 63.794 C 7.306 63.862,7.179 64.044,7.121 64.201 C 7.039 64.422,6.769 64.495,5.883 64.534 C 4.909 64.576,4.728 64.634,4.592 64.942 C 4.485 65.187,4.228 65.334,3.784 65.405 C 3.341 65.476,3.107 65.610,3.051 65.824 C 3.006 65.997,2.788 66.184,2.568 66.239 C 2.323 66.301,2.167 66.461,2.167 66.652 C 2.167 66.846,2.009 67.003,1.750 67.068 C 1.446 67.145,1.333 67.284,1.333 67.587 C 1.333 67.839,1.238 68.000,1.089 68.000 C 0.782 68.000,0.500 68.513,0.500 69.072 C 0.500 69.341,0.407 69.500,0.250 69.500 C 0.034 69.500,0.000 70.148,0.000 74.333 C 0.000 78.519,0.034 79.167,0.250 79.167 C 0.417 79.167,0.500 79.333,0.500 79.667 C 0.500 80.086,0.566 80.167,0.907 80.167 C 1.256 80.167,1.320 80.254,1.365 80.792 C 1.403 81.247,1.517 81.460,1.785 81.578 C 1.987 81.667,2.175 81.892,2.202 82.078 C 2.239 82.337,2.436 82.453,3.042 82.570 C 3.716 82.700,3.833 82.780,3.833 83.111 C 3.833 83.415,3.925 83.500,4.250 83.500 C 4.479 83.500,4.667 83.575,4.667 83.667 C 4.667 83.774,6.250 83.833,9.083 83.833 C 11.746 83.833,13.500 83.771,13.500 83.676 C 13.500 83.589,13.856 83.495,14.292 83.467 C 14.967 83.424,15.091 83.362,15.137 83.042 C 15.175 82.770,15.302 82.667,15.595 82.667 C 15.916 82.667,16.000 82.580,16.000 82.250 C 16.000 81.917,16.083 81.833,16.417 81.833 C 16.747 81.833,16.833 81.749,16.833 81.428 C 16.833 81.135,16.937 81.008,17.208 80.970 C 17.456 80.935,17.602 80.783,17.639 80.522 C 17.670 80.306,17.831 80.093,17.996 80.049 C 18.322 79.964,18.500 79.353,18.500 78.324 C 18.500 77.793,18.561 77.681,18.875 77.637 C 19.604 77.533,19.485 70.500,18.754 70.500 C 18.570 70.500,18.500 70.321,18.500 69.847 C 18.500 68.979,18.363 68.667,17.982 68.667 C 17.757 68.667,17.667 68.548,17.667 68.250 C 17.667 67.917,17.583 67.833,17.250 67.833 C 16.939 67.833,16.833 67.745,16.833 67.487 C 16.833 67.045,15.963 66.167,15.524 66.167 C 15.304 66.167,15.172 66.038,15.137 65.792 C 15.103 65.553,14.949 65.398,14.716 65.364 C 14.514 65.336,14.306 65.176,14.253 65.009 C 14.150 64.684,13.515 64.500,12.499 64.500 C 12.030 64.500,11.852 64.423,11.792 64.192 C 11.669 63.722,7.996 63.389,7.405 63.794 M74.356 63.787 C 74.139 63.828,73.924 64.005,73.878 64.181 C 73.810 64.440,73.642 64.500,72.991 64.500 C 72.014 64.500,71.333 64.738,71.333 65.079 C 71.333 65.239,71.179 65.333,70.917 65.333 C 70.583 65.333,70.500 65.417,70.500 65.750 C 70.500 66.052,70.411 66.167,70.175 66.167 C 69.697 66.167,69.000 66.521,69.000 66.764 C 69.000 66.880,68.775 67.199,68.500 67.474 C 68.225 67.749,68.000 68.125,68.000 68.309 C 68.000 68.529,67.872 68.662,67.625 68.697 C 67.306 68.742,67.242 68.866,67.200 69.526 C 67.157 70.190,67.091 70.316,66.742 70.404 L 66.333 70.506 66.333 74.110 C 66.333 77.339,66.364 77.738,66.625 77.952 C 66.785 78.084,66.811 78.137,66.683 78.070 C 66.529 77.990,66.489 78.014,66.567 78.141 C 66.633 78.247,66.794 78.333,66.927 78.333 C 67.103 78.333,67.167 78.552,67.167 79.163 C 67.167 79.905,67.210 80.005,67.574 80.096 C 67.822 80.158,68.001 80.339,68.032 80.557 C 68.064 80.783,68.223 80.937,68.458 80.970 C 68.730 81.008,68.833 81.135,68.833 81.428 C 68.833 81.749,68.920 81.833,69.250 81.833 C 69.583 81.833,69.667 81.917,69.667 82.250 C 69.667 82.580,69.751 82.667,70.072 82.667 C 70.365 82.667,70.492 82.770,70.530 83.042 C 70.574 83.353,70.703 83.425,71.292 83.468 C 71.681 83.496,72.000 83.590,72.000 83.676 C 72.000 83.771,73.794 83.833,76.500 83.833 C 79.165 83.833,81.000 83.770,81.000 83.678 C 81.000 83.593,81.169 83.499,81.375 83.470 C 81.616 83.436,81.769 83.283,81.803 83.042 C 81.842 82.769,81.968 82.667,82.267 82.667 C 82.514 82.667,82.910 82.434,83.261 82.083 C 83.582 81.763,83.916 81.500,84.004 81.500 C 84.091 81.500,84.210 81.204,84.268 80.842 C 84.348 80.340,84.457 80.173,84.728 80.134 C 85.024 80.092,85.092 79.953,85.134 79.302 C 85.176 78.643,85.241 78.513,85.550 78.469 C 85.915 78.417,85.917 78.395,85.961 74.370 L 86.006 70.323 85.586 69.934 C 85.356 69.720,85.167 69.360,85.167 69.134 C 85.167 68.866,85.022 68.645,84.750 68.500 C 84.436 68.332,84.333 68.143,84.333 67.733 C 84.333 67.297,84.260 67.179,83.958 67.137 C 83.717 67.102,83.564 66.949,83.530 66.708 C 83.501 66.502,83.369 66.333,83.237 66.333 C 83.106 66.333,82.833 66.144,82.633 65.913 C 82.415 65.663,82.012 65.452,81.634 65.392 C 81.177 65.319,81.000 65.208,81.000 64.997 C 81.000 64.612,80.673 64.500,79.554 64.500 C 78.790 64.500,78.621 64.446,78.552 64.182 C 78.428 63.706,75.990 63.477,74.356 63.787 " stroke="none" fill="#ec7444" fill-rule="evenodd"></path><path id="path2" d="M40.930 4.625 C 40.877 4.679,40.833 4.860,40.833 5.028 C 40.833 5.245,40.701 5.339,40.375 5.353 C 40.123 5.363,39.842 5.389,39.750 5.411 C 39.658 5.432,39.490 5.461,39.375 5.475 C 39.260 5.489,39.167 5.682,39.167 5.905 C 39.167 6.198,39.063 6.325,38.792 6.363 C 38.419 6.416,38.416 6.439,38.385 9.542 L 38.353 12.667 38.760 12.667 C 39.083 12.667,39.167 12.753,39.167 13.083 C 39.167 13.413,39.251 13.500,39.572 13.500 C 39.865 13.500,39.992 13.604,40.030 13.875 C 40.082 14.244,40.129 14.251,42.710 14.296 L 45.337 14.342 45.528 13.921 C 45.654 13.645,45.855 13.500,46.110 13.500 C 46.412 13.500,46.500 13.408,46.500 13.095 C 46.500 12.802,46.604 12.675,46.875 12.637 C 47.515 12.546,47.413 6.385,46.772 6.440 C 46.622 6.453,46.491 6.359,46.479 6.231 C 46.468 6.104,46.449 5.914,46.438 5.808 C 46.412 5.571,45.896 5.361,45.303 5.345 C 44.971 5.336,44.843 5.237,44.803 4.958 C 44.751 4.593,41.263 4.293,40.930 4.625 M40.194 69.646 C 40.072 69.724,39.978 69.835,39.986 69.894 C 40.033 70.249,39.956 70.333,39.583 70.333 C 39.253 70.333,39.167 70.417,39.167 70.738 C 39.167 71.032,39.063 71.158,38.792 71.197 C 38.420 71.250,38.416 71.277,38.386 74.231 C 38.355 77.202,38.479 77.906,38.978 77.597 C 39.060 77.546,39.171 77.729,39.226 78.003 C 39.318 78.467,39.375 78.500,40.079 78.500 C 40.772 78.500,40.833 78.534,40.833 78.917 L 40.833 79.333 42.833 79.333 L 44.833 79.333 44.833 78.917 C 44.833 78.565,44.911 78.500,45.333 78.500 C 45.608 78.500,45.890 78.494,45.958 78.486 C 46.175 78.461,46.499 78.134,46.426 78.015 C 46.317 77.838,46.629 77.417,46.869 77.417 C 46.987 77.417,47.084 77.342,47.086 77.250 C 47.087 77.158,47.147 76.992,47.218 76.880 C 47.548 76.360,47.293 71.105,46.940 71.152 C 46.605 71.197,46.518 71.130,46.470 70.792 C 46.436 70.551,46.283 70.398,46.042 70.363 C 45.835 70.334,45.667 70.246,45.667 70.167 C 45.667 69.562,41.024 69.120,40.194 69.646 " stroke="none" fill="#94949c" fill-rule="evenodd"></path><path id="path3" d="" stroke="none" fill="#100d8cc" fill-rule="evenodd"></path><path id="path4" d="" stroke="none" fill="#100d8cc" fill-rule="evenodd"></path></g></svg>