<svg xmlns="http://www.w3.org/2000/svg" width="47" height="16">
    <path fill="#AFAFAF" fill-rule="evenodd" d="M46.454 15.363c-.15.219-.352.379-.605.481a1.288 1.288 0 0 1-.507.093c-.369 0-.688-.125-.957-.375l-5.082-4.97-5.083 4.97a1.361 1.361 0 0 1-.957.387c-.176 0-.345-.035-.507-.105a1.308 1.308 0 0 1-.605-.481 1.264 1.264 0 0 1-.224-.727V1.3c0-.266.075-.508.224-.727.15-.218.352-.378.605-.48a1.25 1.25 0 0 1 .507-.106h12.079c.176 0 .346.035.507.106.253.102.455.262.605.481.15.218.225.46.225.726v13.336c0 .266-.075.508-.225.727zm-34.41-4.896c1.414 0 2.56 1.236 2.56 2.762s-1.146 2.762-2.56 2.762c-1.411 0-2.56-1.236-2.56-2.762 0-.272.05-.529.119-.778l-4.327-2.389c-.468.671-1.201 1.112-2.038 1.112-1.414 0-2.56-1.236-2.56-2.762s1.146-2.763 2.56-2.763c.815 0 1.533.419 2.001 1.059l4.346-2.4a2.922 2.922 0 0 1-.098-.714c0-1.525 1.146-2.762 2.557-2.762 1.417 0 2.56 1.237 2.56 2.762 0 1.527-1.143 2.76-2.56 2.76-.837 0-1.57-.435-2.039-1.106L5.679 7.637c.069.246.115.502.115.775 0 .249-.04.485-.097.713l4.349 2.4c.469-.641 1.183-1.058 1.998-1.058z"/>
</svg>
